<svg xmlns="http://www.w3.org/2000/svg" xmlns:xlink="http://www.w3.org/1999/xlink" xmlns:lucid="lucid" width="1340" height="1200"><g transform="translate(-20 -40)" lucid:page-tab-id="0_0"><path d="M0 0h1870.4v1323.2H0z" fill="#fff"/><path d="M1068.83 580.4c0 6.63-26.86 12-60 12-33.13 0-60-5.37-60-12v-96c0-6.63 26.87-12 60-12 33.14 0 60 5.37 60 12z" stroke="#000" stroke-width="2" fill="#fff"/><path d="M1068.83 484.4c0 6.63-26.86 12-60 12-33.13 0-60-5.37-60-12" stroke="#000" stroke-width="2" fill="none"/><use xlink:href="#a" transform="matrix(1,0,0,1,953.8333333333333,501.4) translate(24.025 35.8)"/><use xlink:href="#b" transform="matrix(1,0,0,1,953.8333333333333,501.4) translate(15.100000000000001 57.4)"/><path d="M380 240h520v980H380z" stroke="#000" stroke-width="2" fill="#fff"/><use xlink:href="#c" transform="matrix(1,0,0,1,385,245.00000000000006) translate(0 13.866666666666669)"/><use xlink:href="#d" transform="matrix(1,0,0,1,385,245.00000000000006) translate(92.30000000000001 13.866666666666669)"/><use xlink:href="#e" transform="matrix(1,0,0,1,385,245.00000000000006) translate(169.24074074074076 13.866666666666669)"/><use xlink:href="#f" transform="matrix(1,0,0,1,385,245.00000000000006) translate(252.20000000000002 13.866666666666669)"/><path d="M620 280h200v120H620z" stroke="#000" stroke-width="2" fill="#fff"/><use xlink:href="#g" transform="matrix(1,0,0,1,625,285) translate(49.5 58.6)"/><use xlink:href="#h" transform="matrix(1,0,0,1,625,285) translate(90.5 58.6)"/><path d="M240 60h160v160H240z" stroke="#000" stroke-width="2" fill="#fff"/><use xlink:href="#i" transform="matrix(1,0,0,1,245,65) translate(25.049999999999997 78.60000000000001)"/><use xlink:href="#j" transform="matrix(1,0,0,1,245,65) translate(70.05 78.60000000000001)"/><path d="M620 441h200v182.8H620z" stroke="#000" stroke-width="2" fill="#fff"/><path d="M640 441v182.8M800 441v182.8" stroke="#000" stroke-width="2" fill="none"/><use xlink:href="#k" transform="matrix(1,0,0,1,650,446) translate(5.674999999999997 25.300000000000004)"/><use xlink:href="#l" transform="matrix(1,0,0,1,650,446) translate(48.525 25.300000000000004)"/><use xlink:href="#m" transform="matrix(1,0,0,1,650,446) translate(80.425 25.300000000000004)"/><use xlink:href="#n" transform="matrix(1,0,0,1,650,446) translate(8.099999999999994 46.900000000000006)"/><use xlink:href="#o" transform="matrix(1,0,0,1,650,446) translate(48 46.900000000000006)"/><use xlink:href="#p" transform="matrix(1,0,0,1,650,446) translate(78 46.900000000000006)"/><use xlink:href="#q" transform="matrix(1,0,0,1,650,446) translate(8.099999999999994 68.50000000000001)"/><use xlink:href="#r" transform="matrix(1,0,0,1,650,446) translate(47.099999999999994 68.50000000000001)"/><use xlink:href="#s" transform="matrix(1,0,0,1,650,446) translate(96 68.50000000000001)"/><use xlink:href="#o" transform="matrix(1,0,0,1,650,446) translate(12.024999999999999 90.10000000000002)"/><use xlink:href="#t" transform="matrix(1,0,0,1,650,446) translate(42.025 90.10000000000002)"/><use xlink:href="#u" transform="matrix(1,0,0,1,650,446) translate(82.975 90.10000000000002)"/><use xlink:href="#v" transform="matrix(1,0,0,1,650,446) translate(102.975 90.10000000000002)"/><use xlink:href="#w" transform="matrix(1,0,0,1,650,446) translate(15.549999999999997 111.70000000000002)"/><use xlink:href="#x" transform="matrix(1,0,0,1,650,446) translate(70.55 111.70000000000002)"/><use xlink:href="#y" transform="matrix(1,0,0,1,650,446) translate(13.325000000000003 133.3)"/><use xlink:href="#z" transform="matrix(1,0,0,1,650,446) translate(116.175 133.3)"/><use xlink:href="#A" transform="matrix(1,0,0,1,650,446) translate(18.025 154.9)"/><path d="M720 402v19.5" stroke="#000" stroke-width="2" fill="none"/><path d="M721 402.03h-2V401h2z"/><path d="M720 436.76l-4.64-14.26h9.28z" stroke="#000" stroke-width="2"/><path d="M720 1026.4l80 60-80 60-80-60z" stroke="#000" stroke-width="2" fill="#fff"/><use xlink:href="#B" transform="matrix(1,0,0,1,645,1031.4) translate(29.5 47.8)"/><use xlink:href="#C" transform="matrix(1,0,0,1,645,1031.4) translate(45.525 69.4)"/><path d="M620 664.8h200v120H620z" stroke="#000" stroke-width="2" fill="#fff"/><path d="M640 664.8v120m160-120v120" stroke="#000" stroke-width="2" fill="none"/><use xlink:href="#k" transform="matrix(1,0,0,1,650.0000000000001,669.8) translate(6.199999999999996 26.19999999999999)"/><use xlink:href="#l" transform="matrix(1,0,0,1,650.0000000000001,669.8) translate(49.05 26.19999999999999)"/><use xlink:href="#D" transform="matrix(1,0,0,1,650.0000000000001,669.8) translate(80.94999999999999 26.19999999999999)"/><use xlink:href="#n" transform="matrix(1,0,0,1,650.0000000000001,669.8) translate(18.049999999999997 47.79999999999999)"/><use xlink:href="#o" transform="matrix(1,0,0,1,650.0000000000001,669.8) translate(57.95 47.79999999999999)"/><use xlink:href="#E" transform="matrix(1,0,0,1,650.0000000000001,669.8) translate(87.95 47.79999999999999)"/><use xlink:href="#q" transform="matrix(1,0,0,1,650.0000000000001,669.8) translate(17.525 69.39999999999999)"/><use xlink:href="#F" transform="matrix(1,0,0,1,650.0000000000001,669.8) translate(56.525 69.39999999999999)"/><use xlink:href="#v" transform="matrix(1,0,0,1,650.0000000000001,669.8) translate(97.475 69.39999999999999)"/><use xlink:href="#G" transform="matrix(1,0,0,1,650.0000000000001,669.8) translate(48.05 91)"/><path d="M720 625.8v19.5" stroke="#000" stroke-width="2" fill="none"/><path d="M721 625.83h-2v-1.03h2z"/><path d="M720 660.56l-4.64-14.26h9.28z" stroke="#000" stroke-width="2"/><path d="M822 532.4h107.33" stroke="#000" stroke-width="2" fill="none"/><path d="M822.03 533.4H821v-2h1.03z"/><path d="M944.6 532.4l-14.27 4.64v-9.28z" stroke="#000" stroke-width="2"/><path d="M420 472.4h156l24 24v96H420z" stroke="#d9be60" stroke-width="2" fill="#ffdf71"/><path d="M576 472.4v24h24" fill="#d9be60"/><g><use xlink:href="#H" transform="matrix(1,0,0,1,425,477.4) translate(25.525 37.5)"/><use xlink:href="#I" transform="matrix(1,0,0,1,425,477.4) translate(41.525 37.5)"/><use xlink:href="#J" transform="matrix(1,0,0,1,425,477.4) translate(95.475 37.5)"/><use xlink:href="#K" transform="matrix(1,0,0,1,425,477.4) translate(0.09999999999999432 59.1)"/><use xlink:href="#L" transform="matrix(1,0,0,1,425,477.4) translate(54 59.1)"/><use xlink:href="#M" transform="matrix(1,0,0,1,425,477.4) translate(112.95 59.1)"/><use xlink:href="#N" transform="matrix(1,0,0,1,425,477.4) translate(130.9 59.1)"/><use xlink:href="#O" transform="matrix(1,0,0,1,425,477.4) translate(67.025 80.70000000000002)"/></g><path d="M720 786.8v19.5" stroke="#000" stroke-width="2" fill="none"/><path d="M721 786.83h-2v-1.03h2z"/><path d="M720 821.56l-4.64-14.26h9.28z" stroke="#000" stroke-width="2"/><path d="M321 1085.4h316.33v2H319V823.67h2zm0-283.33h-2V239.5h2z"/><path d="M638.33 1086.4l1.34 1h-2.36v-2h2.37zM324.64 238.5h-9.28l4.64-14.26z"/><path d="M326 239.5h-12l6-18.5zm-9.26-2h6.52L320 227.47z"/><g><use xlink:href="#P" transform="matrix(1,0,0,1,305.325,802.0666666666667) translate(0 14.4)"/></g><path d="M862 1181H719v-32.35h2V1179h139V837.48h2zm0-365.13h-2V341h-20.5v-2H862z"/><path d="M721 1148.68h-2v-1.78l1 .75 1-.75zM838.5 344.64L824.24 340l14.26-4.64z"/><path d="M839.5 346l-18.5-6 18.5-6zm-12.03-6l10.03 3.26v-6.52z"/><g><use xlink:href="#Q" transform="matrix(1,0,0,1,849.525,815.875) translate(0 14.4)"/></g><path d="M720 987.4v19.25" stroke="#000" stroke-width="2" fill="none"/><path d="M721 987.43h-2v-1.03h2z"/><path d="M720 1021.9l-4.64-14.25h9.28z" stroke="#000" stroke-width="2"/><path d="M721 260.5h-2V141h-17.92v-2H721zM402 141v-2h80.58v2z"/><path d="M402.03 141H401v-2h1.03zM720 275.76l-4.64-14.26h9.28z"/><path d="M720 279l-6-18.5h12zm-3.26-16.5l3.26 10.03 3.26-10.03z"/><g><use xlink:href="#R" transform="matrix(1,0,0,1,482.58333333333337,129.2) translate(0 14.4)"/><use xlink:href="#S" transform="matrix(1,0,0,1,482.58333333333337,129.2) translate(67 14.4)"/><use xlink:href="#T" transform="matrix(1,0,0,1,482.58333333333337,129.2) translate(106 14.4)"/><use xlink:href="#U" transform="matrix(1,0,0,1,482.58333333333337,129.2) translate(159 14.4)"/></g><path d="M1117.67 480H1316l24 24v96h-222.33z" stroke="#d9be60" stroke-width="2" fill="#ffdf71"/><path d="M1316 480v24h24" fill="#d9be60"/><g><use xlink:href="#V" transform="matrix(1,0,0,1,1122.6666666666665,485) translate(11.675000000000011 37.5)"/><use xlink:href="#W" transform="matrix(1,0,0,1,1122.6666666666665,485) translate(57.625000000000014 37.5)"/><use xlink:href="#X" transform="matrix(1,0,0,1,1122.6666666666665,485) translate(5.525000000000006 59.1)"/><use xlink:href="#Y" transform="matrix(1,0,0,1,1122.6666666666665,485) translate(29.525000000000006 59.1)"/><use xlink:href="#Z" transform="matrix(1,0,0,1,1122.6666666666665,485) translate(59.525000000000006 59.1)"/><use xlink:href="#aa" transform="matrix(1,0,0,1,1122.6666666666665,485) translate(112.525 59.1)"/><use xlink:href="#ab" transform="matrix(1,0,0,1,1122.6666666666665,485) translate(147.525 59.1)"/><use xlink:href="#ac" transform="matrix(1,0,0,1,1122.6666666666665,485) translate(77.025 80.70000000000002)"/></g><path d="M620 825.8h200v159.6H620z" stroke="#000" stroke-width="2" fill="#fff"/><path d="M640 825.8v159.6m160-159.6v159.6" stroke="#000" stroke-width="2" fill="none"/><g><use xlink:href="#ad" transform="matrix(1,0,0,1,650,830.8) translate(3.7249999999999943 24.6)"/><use xlink:href="#l" transform="matrix(1,0,0,1,650,830.8) translate(67.475 24.6)"/><use xlink:href="#ae" transform="matrix(1,0,0,1,650,830.8) translate(99.375 24.6)"/><use xlink:href="#af" transform="matrix(1,0,0,1,650,830.8) translate(14.099999999999994 46.2)"/><use xlink:href="#ag" transform="matrix(1,0,0,1,650,830.8) translate(11.099999999999994 67.80000000000001)"/><use xlink:href="#ah" transform="matrix(1,0,0,1,650,830.8) translate(78.95 67.80000000000001)"/><use xlink:href="#ai" transform="matrix(1,0,0,1,650,830.8) translate(13.074999999999996 89.40000000000002)"/><use xlink:href="#aj" transform="matrix(1,0,0,1,650,830.8) translate(38.074999999999996 89.40000000000002)"/><use xlink:href="#ak" transform="matrix(1,0,0,1,650,830.8) translate(95.025 89.40000000000002)"/><use xlink:href="#o" transform="matrix(1,0,0,1,650,830.8) translate(6.049999999999997 111.00000000000001)"/><use xlink:href="#al" transform="matrix(1,0,0,1,650,830.8) translate(36.05 111.00000000000001)"/><use xlink:href="#am" transform="matrix(1,0,0,1,650,830.8) translate(90.05 111.00000000000001)"/><use xlink:href="#an" transform="matrix(1,0,0,1,650,830.8) translate(3.5749999999999886 132.6)"/><use xlink:href="#ao" transform="matrix(1,0,0,1,650,830.8) translate(38.57499999999999 132.6)"/><use xlink:href="#ap" transform="matrix(1,0,0,1,650,830.8) translate(87.475 132.6)"/></g><path d="M40 60h128l32 32v128H40z" stroke="#d9be60" stroke-width="2" fill="#ffdf71"/><path d="M168 60v32h32" fill="#d9be60"/><g><use xlink:href="#aq" transform="matrix(1,0,0,1,45,65) translate(7.974999999999994 24.6)"/><use xlink:href="#Y" transform="matrix(1,0,0,1,45,65) translate(54.224999999999994 24.6)"/><use xlink:href="#ar" transform="matrix(1,0,0,1,45,65) translate(84.225 24.6)"/><use xlink:href="#as" transform="matrix(1,0,0,1,45,65) translate(18.6 46.2)"/><use xlink:href="#at" transform="matrix(1,0,0,1,45,65) translate(60.5 46.2)"/><use xlink:href="#X" transform="matrix(1,0,0,1,45,65) translate(97.4 46.2)"/><use xlink:href="#au" transform="matrix(1,0,0,1,45,65) translate(121.4 46.2)"/><use xlink:href="#av" transform="matrix(1,0,0,1,45,65) translate(8.625 67.80000000000001)"/><use xlink:href="#aw" transform="matrix(1,0,0,1,45,65) translate(74.525 67.80000000000001)"/><use xlink:href="#ax" transform="matrix(1,0,0,1,45,65) translate(102.42500000000001 67.80000000000001)"/><use xlink:href="#ay" transform="matrix(1,0,0,1,45,65) translate(6.099999999999994 89.40000000000002)"/><use xlink:href="#az" transform="matrix(1,0,0,1,45,65) translate(66 89.40000000000002)"/><use xlink:href="#aA" transform="matrix(1,0,0,1,45,65) translate(114.95 89.40000000000002)"/><use xlink:href="#aB" transform="matrix(1,0,0,1,45,65) translate(19.025 111.00000000000001)"/><use xlink:href="#aC" transform="matrix(1,0,0,1,45,65) translate(44.025 111.00000000000001)"/><use xlink:href="#aD" transform="matrix(1,0,0,1,45,65) translate(115.975 111.00000000000001)"/><use xlink:href="#aE" transform="matrix(1,0,0,1,45,65) translate(26.574999999999996 132.6)"/></g><defs><path d="M212-179c-10-28-35-45-73-45-59 0-87 40-87 99 0 60 29 101 89 101 43 0 62-24 78-52l27 14C228-24 195 4 139 4 59 4 22-46 18-125c-6-104 99-153 187-111 19 9 31 26 39 46" id="aF"/><path d="M141-36C126-15 110 5 73 4 37 3 15-17 15-53c-1-64 63-63 125-63 3-35-9-54-41-54-24 1-41 7-42 31l-33-3c5-37 33-52 76-52 45 0 72 20 72 64v82c-1 20 7 32 28 27v20c-31 9-61-2-59-35zM48-53c0 20 12 33 32 33 41-3 63-29 60-74-43 2-92-5-92 41" id="aG"/><path d="M96-169c-40 0-48 33-48 73s9 75 48 75c24 0 41-14 43-38l32 2c-6 37-31 61-74 61-59 0-76-41-82-99-10-93 101-131 147-64 4 7 5 14 7 22l-32 3c-4-21-16-35-41-35" id="aH"/><path d="M106-169C34-169 62-67 57 0H25v-261h32l-1 103c12-21 28-36 61-36 89 0 53 116 60 194h-32v-121c2-32-8-49-39-48" id="aI"/><path d="M100-194c63 0 86 42 84 106H49c0 40 14 67 53 68 26 1 43-12 49-29l28 8c-11 28-37 45-77 45C44 4 14-33 15-96c1-61 26-98 85-98zm52 81c6-60-76-77-97-28-3 7-6 17-6 28h103" id="aJ"/><path d="M85-194c31 0 48 13 60 33l-1-100h32l1 261h-30c-2-10 0-23-3-31C134-8 116 4 85 4 32 4 16-35 15-94c0-66 23-100 70-100zm9 24c-40 0-46 34-46 75 0 40 6 74 45 74 42 0 51-32 51-76 0-42-9-74-50-73" id="aK"/><g id="a"><use transform="matrix(0.05,0,0,0.05,0,0)" xlink:href="#aF"/><use transform="matrix(0.05,0,0,0.05,12.950000000000001,0)" xlink:href="#aG"/><use transform="matrix(0.05,0,0,0.05,22.950000000000003,0)" xlink:href="#aH"/><use transform="matrix(0.05,0,0,0.05,31.950000000000003,0)" xlink:href="#aI"/><use transform="matrix(0.05,0,0,0.05,41.95,0)" xlink:href="#aJ"/><use transform="matrix(0.05,0,0,0.05,51.95,0)" xlink:href="#aK"/></g><path d="M30-248c118-7 216 8 213 122C240-48 200 0 122 0H30v-248zM63-27c89 8 146-16 146-99s-60-101-146-95v194" id="aL"/><path d="M24-231v-30h32v30H24zM24 0v-190h32V0H24" id="aM"/><path d="M59-47c-2 24 18 29 38 22v24C64 9 27 4 27-40v-127H5v-23h24l9-43h21v43h35v23H59v120" id="aN"/><path d="M100-194c62-1 85 37 85 99 1 63-27 99-86 99S16-35 15-95c0-66 28-99 85-99zM99-20c44 1 53-31 53-75 0-43-8-75-51-75s-53 32-53 75 10 74 51 75" id="aO"/><path d="M117-194c89-4 53 116 60 194h-32v-121c0-31-8-49-39-48C34-167 62-67 57 0H25l-1-190h30c1 10-1 24 2 32 11-22 29-35 61-36" id="aP"/><path d="M114-163C36-179 61-72 57 0H25l-1-190h30c1 12-1 29 2 39 6-27 23-49 58-41v29" id="aQ"/><path d="M179-190L93 31C79 59 56 82 12 73V49c39 6 53-20 64-50L1-190h34L92-34l54-156h33" id="aR"/><g id="b"><use transform="matrix(0.05,0,0,0.05,0,0)" xlink:href="#aL"/><use transform="matrix(0.05,0,0,0.05,12.950000000000001,0)" xlink:href="#aM"/><use transform="matrix(0.05,0,0,0.05,16.900000000000002,0)" xlink:href="#aH"/><use transform="matrix(0.05,0,0,0.05,25.900000000000002,0)" xlink:href="#aN"/><use transform="matrix(0.05,0,0,0.05,30.900000000000002,0)" xlink:href="#aM"/><use transform="matrix(0.05,0,0,0.05,34.85,0)" xlink:href="#aO"/><use transform="matrix(0.05,0,0,0.05,44.85,0)" xlink:href="#aP"/><use transform="matrix(0.05,0,0,0.05,54.85,0)" xlink:href="#aG"/><use transform="matrix(0.05,0,0,0.05,64.85,0)" xlink:href="#aQ"/><use transform="matrix(0.05,0,0,0.05,70.8,0)" xlink:href="#aR"/></g><path d="M30 0v-248h33v221h125V0H30" id="aS"/><path d="M115-194c53 0 69 39 70 98 0 66-23 100-70 100C84 3 66-7 56-30L54 0H23l1-261h32v101c10-23 28-34 59-34zm-8 174c40 0 45-34 45-75 0-40-5-75-45-74-42 0-51 32-51 76 0 43 10 73 51 73" id="aT"/><path d="M9 0v-24l116-142H16v-24h144v24L44-24h123V0H9" id="aU"/><path d="M185-189c-5-48-123-54-124 2 14 75 158 14 163 119 3 78-121 87-175 55-17-10-28-26-33-46l33-7c5 56 141 63 141-1 0-78-155-14-162-118-5-82 145-84 179-34 5 7 8 16 11 25" id="aV"/><path d="M210-169c-67 3-38 105-44 169h-31v-121c0-29-5-50-35-48C34-165 62-65 56 0H25l-1-190h30c1 10-1 24 2 32 10-44 99-50 107 0 11-21 27-35 58-36 85-2 47 119 55 194h-31v-121c0-29-5-49-35-48" id="aW"/><g id="c"><use transform="matrix(0.048148148148148155,0,0,0.048148148148148155,0,0)" xlink:href="#aS"/><use transform="matrix(0.048148148148148155,0,0,0.048148148148148155,9.629629629629632,0)" xlink:href="#aM"/><use transform="matrix(0.048148148148148155,0,0,0.048148148148148155,13.433333333333335,0)" xlink:href="#aT"/><use transform="matrix(0.048148148148148155,0,0,0.048148148148148155,23.062962962962967,0)" xlink:href="#aU"/><use transform="matrix(0.048148148148148155,0,0,0.048148148148148155,31.729629629629635,0)" xlink:href="#aV"/><use transform="matrix(0.048148148148148155,0,0,0.048148148148148155,43.28518518518519,0)" xlink:href="#aN"/><use transform="matrix(0.048148148148148155,0,0,0.048148148148148155,48.10000000000001,0)" xlink:href="#aQ"/><use transform="matrix(0.048148148148148155,0,0,0.048148148148148155,53.829629629629636,0)" xlink:href="#aJ"/><use transform="matrix(0.048148148148148155,0,0,0.048148148148148155,63.45925925925927,0)" xlink:href="#aG"/><use transform="matrix(0.048148148148148155,0,0,0.048148148148148155,73.0888888888889,0)" xlink:href="#aW"/></g><path d="M87 75C49 33 22-17 22-94c0-76 28-126 65-167h31c-38 41-64 92-64 168S80 34 118 75H87" id="aX"/><path d="M190 0L58-211 59 0H30v-248h39L202-35l-2-213h31V0h-41" id="aY"/><path d="M33 0v-38h34V0H33" id="aZ"/><path d="M153-248C145-148 188 4 80 4 36 3 13-21 6-62l32-5c4 25 16 42 43 43 27 0 39-20 39-49v-147H72v-28h81" id="ba"/><g id="d"><use transform="matrix(0.048148148148148155,0,0,0.048148148148148155,0,0)" xlink:href="#aX"/><use transform="matrix(0.048148148148148155,0,0,0.048148148148148155,5.72962962962963,0)" xlink:href="#aY"/><use transform="matrix(0.048148148148148155,0,0,0.048148148148148155,18.200000000000003,0)" xlink:href="#aO"/><use transform="matrix(0.048148148148148155,0,0,0.048148148148148155,27.829629629629633,0)" xlink:href="#aK"/><use transform="matrix(0.048148148148148155,0,0,0.048148148148148155,37.45925925925927,0)" xlink:href="#aJ"/><use transform="matrix(0.048148148148148155,0,0,0.048148148148148155,47.0888888888889,0)" xlink:href="#aZ"/><use transform="matrix(0.048148148148148155,0,0,0.048148148148148155,51.90370370370372,0)" xlink:href="#ba"/><use transform="matrix(0.048148148148148155,0,0,0.048148148148148155,60.57037037037038,0)" xlink:href="#aV"/></g><path d="M127-220V0H93v-220H8v-28h204v28h-85" id="bb"/><path d="M135-143c-3-34-86-38-87 0 15 53 115 12 119 90S17 21 10-45l28-5c4 36 97 45 98 0-10-56-113-15-118-90-4-57 82-63 122-42 12 7 21 19 24 35" id="bc"/><path d="M101-234c-31-9-42 10-38 44h38v23H63V0H32v-167H5v-23h27c-7-52 17-82 69-68v24" id="bd"/><g id="e"><use transform="matrix(0.048148148148148155,0,0,0.048148148148148155,0,0)" xlink:href="#bb"/><use transform="matrix(0.048148148148148155,0,0,0.048148148148148155,9.91851851851852,0)" xlink:href="#aQ"/><use transform="matrix(0.048148148148148155,0,0,0.048148148148148155,15.648148148148147,0)" xlink:href="#aG"/><use transform="matrix(0.048148148148148155,0,0,0.048148148148148155,25.277777777777775,0)" xlink:href="#aP"/><use transform="matrix(0.048148148148148155,0,0,0.048148148148148155,34.90740740740741,0)" xlink:href="#bc"/><use transform="matrix(0.048148148148148155,0,0,0.048148148148148155,43.574074074074076,0)" xlink:href="#bd"/><use transform="matrix(0.048148148148148155,0,0,0.048148148148148155,48.38888888888889,0)" xlink:href="#aO"/><use transform="matrix(0.048148148148148155,0,0,0.048148148148148155,58.018518518518526,0)" xlink:href="#aQ"/><use transform="matrix(0.048148148148148155,0,0,0.048148148148148155,63.74814814814816,0)" xlink:href="#aW"/></g><path d="M33-261c38 41 65 92 65 168S71 34 33 75H2C39 34 66-17 66-93S39-220 2-261h31" id="be"/><g id="f"><use transform="matrix(0.048148148148148155,0,0,0.048148148148148155,0,0)" xlink:href="#bc"/><use transform="matrix(0.048148148148148155,0,0,0.048148148148148155,8.666666666666668,0)" xlink:href="#aN"/><use transform="matrix(0.048148148148148155,0,0,0.048148148148148155,13.481481481481483,0)" xlink:href="#aQ"/><use transform="matrix(0.048148148148148155,0,0,0.048148148148148155,19.211111111111116,0)" xlink:href="#aJ"/><use transform="matrix(0.048148148148148155,0,0,0.048148148148148155,28.84074074074075,0)" xlink:href="#aG"/><use transform="matrix(0.048148148148148155,0,0,0.048148148148148155,38.47037037037038,0)" xlink:href="#aW"/><use transform="matrix(0.048148148148148155,0,0,0.048148148148148155,52.86666666666669,0)" xlink:href="#be"/></g><path d="M160-131c35 5 61 23 61 61C221 17 115-2 30 0v-248c76 3 177-17 177 60 0 33-19 50-47 57zm-97-11c50-1 110 9 110-42 0-47-63-36-110-37v79zm0 115c55-2 124 14 124-45 0-56-70-42-124-44v89" id="bf"/><g id="g"><use transform="matrix(0.05,0,0,0.05,0,0)" xlink:href="#bf"/><use transform="matrix(0.05,0,0,0.05,12,0)" xlink:href="#aR"/><use transform="matrix(0.05,0,0,0.05,21,0)" xlink:href="#aN"/><use transform="matrix(0.05,0,0,0.05,26,0)" xlink:href="#aJ"/></g><path d="M145-31C134-9 116 4 85 4 32 4 16-35 15-94c0-59 17-99 70-100 32-1 48 14 60 33 0-11-1-24 2-32h30l-1 268h-32zM93-21c41 0 51-33 51-76s-8-73-50-73c-40 0-46 35-46 75s5 74 45 74" id="bg"/><path d="M84 4C-5 8 30-112 23-190h32v120c0 31 7 50 39 49 72-2 45-101 50-169h31l1 190h-30c-1-10 1-25-2-33-11 22-28 36-60 37" id="bh"/><g id="h"><use transform="matrix(0.05,0,0,0.05,0,0)" xlink:href="#bg"/><use transform="matrix(0.05,0,0,0.05,10,0)" xlink:href="#bh"/><use transform="matrix(0.05,0,0,0.05,20,0)" xlink:href="#aJ"/><use transform="matrix(0.05,0,0,0.05,30,0)" xlink:href="#bh"/><use transform="matrix(0.05,0,0,0.05,40,0)" xlink:href="#aJ"/></g><path d="M33 0v-248h34V0H33" id="bi"/><path d="M115-194c55 1 70 41 70 98S169 2 115 4C84 4 66-9 55-30l1 105H24l-1-265h31l2 30c10-21 28-34 59-34zm-8 174c40 0 45-34 45-75s-6-73-45-74c-42 0-51 32-51 76 0 43 10 73 51 73" id="bj"/><g id="i"><use transform="matrix(0.05,0,0,0.05,0,0)" xlink:href="#bi"/><use transform="matrix(0.05,0,0,0.05,5,0)" xlink:href="#aP"/><use transform="matrix(0.05,0,0,0.05,15,0)" xlink:href="#bj"/><use transform="matrix(0.05,0,0,0.05,25,0)" xlink:href="#bh"/><use transform="matrix(0.05,0,0,0.05,35,0)" xlink:href="#aN"/></g><g id="j"><use transform="matrix(0.05,0,0,0.05,0,0)" xlink:href="#bc"/><use transform="matrix(0.05,0,0,0.05,9,0)" xlink:href="#aN"/><use transform="matrix(0.05,0,0,0.05,14,0)" xlink:href="#aQ"/><use transform="matrix(0.05,0,0,0.05,19.95,0)" xlink:href="#aJ"/><use transform="matrix(0.05,0,0,0.05,29.950000000000003,0)" xlink:href="#aG"/><use transform="matrix(0.05,0,0,0.05,39.95,0)" xlink:href="#aW"/></g><path d="M76-208v77h127v40H76V0H24v-248h183v40H76" id="bk"/><path d="M25-224v-37h50v37H25zM25 0v-190h50V0H25" id="bl"/><path d="M135-194c87-1 58 113 63 194h-50c-7-57 23-157-34-157-59 0-34 97-39 157H25l-1-190h47c2 12-1 28 3 38 12-26 28-41 61-42" id="bm"/><path d="M88-194c31-1 46 15 58 34l-1-101h50l1 261h-48c-2-10 0-23-3-31C134-8 116 4 84 4 32 4 16-41 15-95c0-56 19-97 73-99zm17 164c33 0 40-30 41-66 1-37-9-64-41-64s-38 30-39 65c0 43 13 65 39 65" id="bn"/><g id="k"><use transform="matrix(0.05,0,0,0.05,0,0)" xlink:href="#bk"/><use transform="matrix(0.05,0,0,0.05,10.950000000000001,0)" xlink:href="#bl"/><use transform="matrix(0.05,0,0,0.05,15.950000000000001,0)" xlink:href="#bm"/><use transform="matrix(0.05,0,0,0.05,26.900000000000002,0)" xlink:href="#bn"/></g><path d="M115-3C79 11 28 4 28-45v-112H4v-33h27l15-45h31v45h36v33H77v99c-1 23 16 31 38 25v30" id="bo"/><path d="M114-157C55-157 80-60 75 0H25v-261h50l-1 109c12-26 28-41 61-42 86-1 58 113 63 194h-50c-7-57 23-157-34-157" id="bp"/><path d="M185-48c-13 30-37 53-82 52C43 2 14-33 14-96s30-98 90-98c62 0 83 45 84 108H66c0 31 8 55 39 56 18 0 30-7 34-22zm-45-69c5-46-57-63-70-21-2 6-4 13-4 21h74" id="bq"/><g id="l"><use transform="matrix(0.05,0,0,0.05,0,0)" xlink:href="#bo"/><use transform="matrix(0.05,0,0,0.05,5.95,0)" xlink:href="#bp"/><use transform="matrix(0.05,0,0,0.05,16.900000000000002,0)" xlink:href="#bq"/></g><path d="M135-194c53 0 70 44 70 98 0 56-19 98-73 100-31 1-45-17-59-34 3 33 2 69 2 105H25l-1-265h48c2 10 0 23 3 31 11-24 29-35 60-35zM114-30c33 0 39-31 40-66 0-38-9-64-40-64-56 0-55 130 0 130" id="br"/><path d="M135-150c-39-12-60 13-60 57V0H25l-1-190h47c2 13-1 29 3 40 6-28 27-53 61-41v41" id="bs"/><path d="M121-226c-27-7-43 5-38 36h38v33H83V0H34v-157H6v-33h28c-9-59 32-81 87-68v32" id="bt"/><path d="M144 0l-44-69L55 0H2l70-98-66-92h53l41 62 40-62h54l-67 91 71 99h-54" id="bu"/><path d="M33-154v-36h34v36H33zM33 0v-36h34V0H33" id="bv"/><g id="m"><use transform="matrix(0.05,0,0,0.05,0,0)" xlink:href="#br"/><use transform="matrix(0.05,0,0,0.05,10.950000000000001,0)" xlink:href="#bs"/><use transform="matrix(0.05,0,0,0.05,17.950000000000003,0)" xlink:href="#bq"/><use transform="matrix(0.05,0,0,0.05,27.950000000000003,0)" xlink:href="#bt"/><use transform="matrix(0.05,0,0,0.05,33.900000000000006,0)" xlink:href="#bl"/><use transform="matrix(0.05,0,0,0.05,38.900000000000006,0)" xlink:href="#bu"/><use transform="matrix(0.05,0,0,0.05,48.900000000000006,0)" xlink:href="#bv"/></g><path d="M87-220l-18 92h140l-5 28H64L45 0H11l48-248h178l-5 28H87" id="bw"/><path d="M50-231l6-30h32l-6 30H50zM6 0l37-190h31L37 0H6" id="bx"/><path d="M67-158c22-48 132-52 116 29L158 0h-32l25-140c3-38-53-32-70-12C52-117 51-52 38 0H6l36-190h30" id="by"/><path d="M133-28C103 26-5 8 13-77c13-62 24-115 90-117 29-1 46 15 56 35l19-102h32L160 0h-30zM45-64c-2 27 10 43 35 43 54-1 69-50 69-103 0-29-15-46-42-46-53-1-58 58-62 106" id="bz"/><g id="n"><use transform="matrix(0.05,0,0,0.05,0,0)" xlink:href="#bw"/><use transform="matrix(0.05,0,0,0.05,10.950000000000001,0)" xlink:href="#bx"/><use transform="matrix(0.05,0,0,0.05,14.9,0)" xlink:href="#by"/><use transform="matrix(0.05,0,0,0.05,24.900000000000002,0)" xlink:href="#bz"/></g><path d="M51-54c-9 22 5 41 31 30L79-1C43 14 10-4 19-52l22-115H19l5-23h22l19-43h21l-9 43h35l-4 23H73" id="bA"/><path d="M67-158c15-20 31-36 64-36 94 0 33 127 27 194h-32l25-140c3-38-53-32-70-12C52-117 51-51 37 0H6l51-261h31" id="bB"/><path d="M111-194c62-3 86 47 72 106H45c-7 38 6 69 45 68 27-1 43-14 53-32l24 11C152-15 129 4 87 4 38 3 12-23 12-71c0-70 32-119 99-123zm44 81c14-66-71-72-95-28-4 8-8 17-11 28h106" id="bC"/><g id="o"><use transform="matrix(0.05,0,0,0.05,0,0)" xlink:href="#bA"/><use transform="matrix(0.05,0,0,0.05,5,0)" xlink:href="#bB"/><use transform="matrix(0.05,0,0,0.05,15,0)" xlink:href="#bC"/></g><path d="M6 0l50-261h32L37 0H6" id="bD"/><path d="M165-48c-4 18 1 34 23 27l-3 20c-29 8-62 0-52-35h-2C116-14 99 4 63 4 30 4 8-16 8-49c0-68 71-67 138-67 10-26 0-56-31-54-26 1-42 9-47 31l-32-5c8-67 160-71 144 15-5 28-9 54-15 81zM42-50c3 52 80 24 89-6 7-12 7-24 11-38-47 1-103-4-100 44" id="bE"/><path d="M66-151c12-25 30-51 66-40l-6 26C45-176 58-65 38 0H6l36-190h30" id="bF"/><path d="M103-194c29 0 47 14 56 36 2-11 5-23 8-32h30L160-5C157 61 82 97 21 62 9 55 4 45 1 30l28-7c7 42 83 31 92-3 4-16 9-38 13-55-13 20-29 36-62 36-40 0-60-25-60-64 0-71 23-131 91-131zm4 24c-53 0-58 54-61 104-2 27 10 44 36 44 49 0 65-50 67-102 1-29-15-46-42-46" id="bG"/><path d="M55-144c13 50 104 24 104 88C159 21 15 23 1-39l26-10c6 40 102 42 102-4-13-50-104-23-104-87 0-71 143-71 148-8l-29 4c-5-35-85-37-89 0" id="bH"/><g id="p"><use transform="matrix(0.05,0,0,0.05,0,0)" xlink:href="#bD"/><use transform="matrix(0.05,0,0,0.05,3.95,0)" xlink:href="#bE"/><use transform="matrix(0.05,0,0,0.05,13.949999999999998,0)" xlink:href="#bF"/><use transform="matrix(0.05,0,0,0.05,19.9,0)" xlink:href="#bG"/><use transform="matrix(0.05,0,0,0.05,29.899999999999995,0)" xlink:href="#bC"/><use transform="matrix(0.05,0,0,0.05,39.9,0)" xlink:href="#bH"/><use transform="matrix(0.05,0,0,0.05,48.9,0)" xlink:href="#bA"/></g><path d="M68-162c25-46 127-43 121 31C183-60 169 1 98 4 69 5 53-11 43-31L36 0H5l52-261h31zm88 36c2-27-9-43-34-43-55 0-70 51-70 103 0 29 15 45 43 46 52 0 58-58 61-106" id="bI"/><path d="M198-190L69 30C53 58 25 83-20 72c4-11-1-27 19-22 33-1 43-29 59-52L20-190h32L79-34l84-156h35" id="bJ"/><g id="q"><use transform="matrix(0.05,0,0,0.05,0,0)" xlink:href="#bI"/><use transform="matrix(0.05,0,0,0.05,10,0)" xlink:href="#bJ"/><use transform="matrix(0.05,0,0,0.05,19,0)" xlink:href="#bA"/><use transform="matrix(0.05,0,0,0.05,24,0)" xlink:href="#bC"/></g><g id="r"><use transform="matrix(0.05,0,0,0.05,0,0)" xlink:href="#bH"/><use transform="matrix(0.05,0,0,0.05,9,0)" xlink:href="#bA"/><use transform="matrix(0.05,0,0,0.05,14,0)" xlink:href="#bF"/><use transform="matrix(0.05,0,0,0.05,19.95,0)" xlink:href="#bx"/><use transform="matrix(0.05,0,0,0.05,23.9,0)" xlink:href="#by"/><use transform="matrix(0.05,0,0,0.05,33.9,0)" xlink:href="#bG"/></g><path d="M76-167L44 0H12l33-167H18l4-23h27c3-47 25-81 82-69l-4 24c-35-8-44 15-46 45h37l-5 23H76" id="bK"/><path d="M30-147c31-64 166-65 159 27C183-49 158 1 86 4 9 8 1-88 30-147zM88-20c53 0 68-48 68-100 0-31-11-51-44-50-52 1-68 46-68 97 0 32 13 53 44 53" id="bL"/><path d="M248-111c6-24 9-61-24-58-72 9-57 108-77 169h-31l26-142c3-37-50-30-64-10C52-115 50-51 37 0H6l36-190h30c-1 10-6 24-4 32 13-43 101-52 105 5 13-22 29-41 61-41 90 0 28 129 23 194h-31" id="bM"/><g id="s"><use transform="matrix(0.05,0,0,0.05,0,0)" xlink:href="#bK"/><use transform="matrix(0.05,0,0,0.05,5,0)" xlink:href="#bF"/><use transform="matrix(0.05,0,0,0.05,10.95,0)" xlink:href="#bL"/><use transform="matrix(0.05,0,0,0.05,20.95,0)" xlink:href="#bM"/></g><g id="t"><use transform="matrix(0.05,0,0,0.05,0,0)" xlink:href="#bK"/><use transform="matrix(0.05,0,0,0.05,5,0)" xlink:href="#bF"/><use transform="matrix(0.05,0,0,0.05,10.95,0)" xlink:href="#bL"/><use transform="matrix(0.05,0,0,0.05,20.95,0)" xlink:href="#by"/><use transform="matrix(0.05,0,0,0.05,30.950000000000003,0)" xlink:href="#bA"/></g><g id="u"><use transform="matrix(0.05,0,0,0.05,0,0)" xlink:href="#bL"/><use transform="matrix(0.05,0,0,0.05,10,0)" xlink:href="#bK"/></g><g id="v"><use transform="matrix(0.05,0,0,0.05,0,0)" xlink:href="#bA"/><use transform="matrix(0.05,0,0,0.05,5,0)" xlink:href="#bB"/><use transform="matrix(0.05,0,0,0.05,15,0)" xlink:href="#bC"/></g><path d="M133-28C103 26-5 8 13-77c13-62 24-115 90-117 29-1 46 15 56 35 2-12 6-24 8-34h31L144 75h-31zM45-64c-2 27 10 43 35 43 54-1 69-50 69-103 0-29-15-46-42-46-53-1-58 58-62 106" id="bN"/><path d="M67 3c-93-2-31-127-26-193h32L48-50c-3 39 53 32 70 12 30-34 30-101 43-152h32L157 0h-30c1-10 6-24 4-33-14 20-29 37-64 36" id="bO"/><g id="w"><use transform="matrix(0.05,0,0,0.05,0,0)" xlink:href="#bN"/><use transform="matrix(0.05,0,0,0.05,10,0)" xlink:href="#bO"/><use transform="matrix(0.05,0,0,0.05,20,0)" xlink:href="#bC"/><use transform="matrix(0.05,0,0,0.05,30,0)" xlink:href="#bO"/><use transform="matrix(0.05,0,0,0.05,40,0)" xlink:href="#bC"/></g><path d="M188 0h-37l-8-164L71 0H34L18-190h31l8 164 75-164h34l8 164 74-164h31" id="bP"/><path d="M44-154l7-36h35l-8 36H44zM14 0l7-36h35L49 0H14" id="bQ"/><g id="x"><use transform="matrix(0.05,0,0,0.05,0,0)" xlink:href="#bP"/><use transform="matrix(0.05,0,0,0.05,12.950000000000001,0)" xlink:href="#bB"/><use transform="matrix(0.05,0,0,0.05,22.950000000000003,0)" xlink:href="#bC"/><use transform="matrix(0.05,0,0,0.05,32.95,0)" xlink:href="#bF"/><use transform="matrix(0.05,0,0,0.05,38.900000000000006,0)" xlink:href="#bC"/><use transform="matrix(0.05,0,0,0.05,48.900000000000006,0)" xlink:href="#bQ"/></g><path d="M67-162c32-53 139-36 121 50C175-51 163 2 97 4 68 4 52-11 42-31 38 6 28 39 22 75H-9l50-265h29c-1 10 0 20-3 28zm89 36c0-26-10-43-35-43-54 0-67 50-69 103-1 29 14 45 42 46 53 0 62-58 62-106" id="bR"/><path d="M124 0L87-78 21 0h-35l86-98-46-92h33l34 74 61-74h37l-83 92 50 98h-34" id="bS"/><path d="M14 0l8-38h34L48 0H14" id="bT"/><g id="y"><use transform="matrix(0.05,0,0,0.05,0,0)" xlink:href="#bR"/><use transform="matrix(0.05,0,0,0.05,10,0)" xlink:href="#bF"/><use transform="matrix(0.05,0,0,0.05,15.949999999999998,0)" xlink:href="#bC"/><use transform="matrix(0.05,0,0,0.05,25.950000000000003,0)" xlink:href="#bK"/><use transform="matrix(0.05,0,0,0.05,30.950000000000003,0)" xlink:href="#bx"/><use transform="matrix(0.05,0,0,0.05,34.9,0)" xlink:href="#bS"/><use transform="matrix(0.05,0,0,0.05,43.9,0)" xlink:href="#bT"/><use transform="matrix(0.05,0,0,0.05,48.9,0)" xlink:href="#bD"/><use transform="matrix(0.05,0,0,0.05,52.85,0)" xlink:href="#bC"/><use transform="matrix(0.05,0,0,0.05,62.85,0)" xlink:href="#by"/><use transform="matrix(0.05,0,0,0.05,72.85,0)" xlink:href="#bG"/><use transform="matrix(0.05,0,0,0.05,82.85,0)" xlink:href="#bA"/><use transform="matrix(0.05,0,0,0.05,87.85,0)" xlink:href="#bB"/><path d="M-.9 1.25h104.65v1.32H-.9z"/></g><path d="M23-100v-36l175-74v27L47-118l151 64v27" id="bU"/><g id="z"><use transform="matrix(0.05,0,0,0.05,0,0)" xlink:href="#bU"/><path d="M-.9 1.25h12.3v1.32H-.9z"/></g><g id="A"><use transform="matrix(0.05,0,0,0.05,0,0)" xlink:href="#bN"/><use transform="matrix(0.05,0,0,0.05,10,0)" xlink:href="#bO"/><use transform="matrix(0.05,0,0,0.05,20,0)" xlink:href="#bC"/><use transform="matrix(0.05,0,0,0.05,30,0)" xlink:href="#bO"/><use transform="matrix(0.05,0,0,0.05,40,0)" xlink:href="#bC"/><use transform="matrix(0.05,0,0,0.05,50,0)" xlink:href="#bT"/><use transform="matrix(0.05,0,0,0.05,55,0)" xlink:href="#bD"/><use transform="matrix(0.05,0,0,0.05,58.95,0)" xlink:href="#bC"/><use transform="matrix(0.05,0,0,0.05,68.95,0)" xlink:href="#by"/><use transform="matrix(0.05,0,0,0.05,78.95,0)" xlink:href="#bG"/><use transform="matrix(0.05,0,0,0.05,88.95,0)" xlink:href="#bA"/><use transform="matrix(0.05,0,0,0.05,93.95,0)" xlink:href="#bB"/><path d="M-.9 1.25h105.75v1.32H-.9z"/></g><path d="M143 0L79-87 56-68V0H24v-261h32v163l83-92h37l-77 82L181 0h-38" id="bV"/><path d="M205 0l-28-72H64L36 0H1l101-248h38L239 0h-34zm-38-99l-47-123c-12 45-31 82-46 123h93" id="bW"/><g id="B"><use transform="matrix(0.05,0,0,0.05,0,0)" xlink:href="#aS"/><use transform="matrix(0.05,0,0,0.05,10,0)" xlink:href="#aO"/><use transform="matrix(0.05,0,0,0.05,20,0)" xlink:href="#aO"/><use transform="matrix(0.05,0,0,0.05,30,0)" xlink:href="#bV"/><use transform="matrix(0.05,0,0,0.05,39,0)" xlink:href="#bW"/><use transform="matrix(0.05,0,0,0.05,51,0)" xlink:href="#aI"/><use transform="matrix(0.05,0,0,0.05,61,0)" xlink:href="#aJ"/><use transform="matrix(0.05,0,0,0.05,71,0)" xlink:href="#aG"/><use transform="matrix(0.05,0,0,0.05,81,0)" xlink:href="#aK"/></g><path d="M103-251c84 0 111 97 45 133-19 10-37 24-39 52H78c0-63 77-55 77-114 0-30-21-42-52-43-32 0-53 17-56 46l-32-2c7-45 34-72 88-72zM77 0v-35h34V0H77" id="bX"/><g id="C"><use transform="matrix(0.05,0,0,0.05,0,0)" xlink:href="#aJ"/><use transform="matrix(0.05,0,0,0.05,10,0)" xlink:href="#aW"/><use transform="matrix(0.05,0,0,0.05,24.950000000000003,0)" xlink:href="#bj"/><use transform="matrix(0.05,0,0,0.05,34.95,0)" xlink:href="#aN"/><use transform="matrix(0.05,0,0,0.05,39.95,0)" xlink:href="#aR"/><use transform="matrix(0.05,0,0,0.05,48.95,0)" xlink:href="#bX"/></g><path d="M110-194c64 0 96 36 96 99 0 64-35 99-97 99-61 0-95-36-95-99 0-62 34-99 96-99zm-1 164c35 0 45-28 45-65 0-40-10-65-43-65-34 0-45 26-45 65 0 36 10 65 43 65" id="bY"/><path d="M147 0L96-86 75-71V0H25v-261h50v150l67-79h53l-66 74L201 0h-54" id="bZ"/><g id="D"><use transform="matrix(0.05,0,0,0.05,0,0)" xlink:href="#bo"/><use transform="matrix(0.05,0,0,0.05,5.95,0)" xlink:href="#bY"/><use transform="matrix(0.05,0,0,0.05,16.900000000000002,0)" xlink:href="#bZ"/><use transform="matrix(0.05,0,0,0.05,26.900000000000002,0)" xlink:href="#bq"/><use transform="matrix(0.05,0,0,0.05,36.900000000000006,0)" xlink:href="#bm"/><use transform="matrix(0.05,0,0,0.05,47.85000000000001,0)" xlink:href="#bv"/></g><g id="E"><use transform="matrix(0.05,0,0,0.05,0,0)" xlink:href="#by"/><use transform="matrix(0.05,0,0,0.05,10,0)" xlink:href="#bC"/><use transform="matrix(0.05,0,0,0.05,20,0)" xlink:href="#bS"/><use transform="matrix(0.05,0,0,0.05,29,0)" xlink:href="#bA"/></g><g id="F"><use transform="matrix(0.05,0,0,0.05,0,0)" xlink:href="#bE"/><use transform="matrix(0.05,0,0,0.05,10,0)" xlink:href="#bK"/><use transform="matrix(0.05,0,0,0.05,15,0)" xlink:href="#bA"/><use transform="matrix(0.05,0,0,0.05,20,0)" xlink:href="#bC"/><use transform="matrix(0.05,0,0,0.05,30,0)" xlink:href="#bF"/></g><g id="G"><use transform="matrix(0.05,0,0,0.05,0,0)" xlink:href="#bR"/><use transform="matrix(0.05,0,0,0.05,10,0)" xlink:href="#bF"/><use transform="matrix(0.05,0,0,0.05,15.949999999999998,0)" xlink:href="#bC"/><use transform="matrix(0.05,0,0,0.05,25.950000000000003,0)" xlink:href="#bK"/><use transform="matrix(0.05,0,0,0.05,30.950000000000003,0)" xlink:href="#bx"/><use transform="matrix(0.05,0,0,0.05,34.9,0)" xlink:href="#bS"/></g><use transform="matrix(0.05,0,0,0.05,0,0)" xlink:href="#bW" id="H"/><path d="M24 0v-261h32V0H24" id="ca"/><path d="M177-190C167-65 218 103 67 71c-23-6-38-20-44-43l32-5c15 47 100 32 89-28v-30C133-14 115 1 83 1 29 1 15-40 15-95c0-56 16-97 71-98 29-1 48 16 59 35 1-10 0-23 2-32h30zM94-22c36 0 50-32 50-73 0-42-14-75-50-75-39 0-46 34-46 75s6 73 46 73" id="cb"/><g id="I"><use transform="matrix(0.05,0,0,0.05,0,0)" xlink:href="#ca"/><use transform="matrix(0.05,0,0,0.05,3.95,0)" xlink:href="#aJ"/><use transform="matrix(0.05,0,0,0.05,13.949999999999998,0)" xlink:href="#aP"/><use transform="matrix(0.05,0,0,0.05,23.95,0)" xlink:href="#cb"/><use transform="matrix(0.05,0,0,0.05,33.95,0)" xlink:href="#aN"/><use transform="matrix(0.05,0,0,0.05,38.95,0)" xlink:href="#aI"/></g><g id="J"><use transform="matrix(0.05,0,0,0.05,0,0)" xlink:href="#aT"/><use transform="matrix(0.05,0,0,0.05,10,0)" xlink:href="#aG"/><use transform="matrix(0.05,0,0,0.05,20,0)" xlink:href="#bc"/><use transform="matrix(0.05,0,0,0.05,29,0)" xlink:href="#aJ"/><use transform="matrix(0.05,0,0,0.05,39,0)" xlink:href="#aK"/></g><g id="K"><use transform="matrix(0.05,0,0,0.05,0,0)" xlink:href="#aT"/><use transform="matrix(0.05,0,0,0.05,10,0)" xlink:href="#aM"/><use transform="matrix(0.05,0,0,0.05,13.949999999999998,0)" xlink:href="#aP"/><use transform="matrix(0.05,0,0,0.05,23.95,0)" xlink:href="#aG"/><use transform="matrix(0.05,0,0,0.05,33.95,0)" xlink:href="#aQ"/><use transform="matrix(0.05,0,0,0.05,39.900000000000006,0)" xlink:href="#aR"/></g><g id="L"><use transform="matrix(0.05,0,0,0.05,0,0)" xlink:href="#bc"/><use transform="matrix(0.05,0,0,0.05,9,0)" xlink:href="#aJ"/><use transform="matrix(0.05,0,0,0.05,19,0)" xlink:href="#aG"/><use transform="matrix(0.05,0,0,0.05,29,0)" xlink:href="#aQ"/><use transform="matrix(0.05,0,0,0.05,34.95,0)" xlink:href="#aH"/><use transform="matrix(0.05,0,0,0.05,43.95,0)" xlink:href="#aI"/></g><g id="M"><use transform="matrix(0.05,0,0,0.05,0,0)" xlink:href="#aM"/><use transform="matrix(0.05,0,0,0.05,3.95,0)" xlink:href="#bc"/></g><g id="N"><use transform="matrix(0.05,0,0,0.05,0,0)" xlink:href="#bh"/><use transform="matrix(0.05,0,0,0.05,10,0)" xlink:href="#bc"/><use transform="matrix(0.05,0,0,0.05,19,0)" xlink:href="#aJ"/><use transform="matrix(0.05,0,0,0.05,29,0)" xlink:href="#aK"/></g><g id="O"><use transform="matrix(0.05,0,0,0.05,0,0)" xlink:href="#aI"/><use transform="matrix(0.05,0,0,0.05,10,0)" xlink:href="#aJ"/><use transform="matrix(0.05,0,0,0.05,20,0)" xlink:href="#aQ"/><use transform="matrix(0.05,0,0,0.05,25.950000000000003,0)" xlink:href="#aJ"/></g><path d="M137-103V0h-34v-103L8-248h37l75 118 75-118h37" id="cc"/><g id="P"><use transform="matrix(0.05,0,0,0.05,0,0)" xlink:href="#cc"/><use transform="matrix(0.05,0,0,0.05,10.35,0)" xlink:href="#aJ"/><use transform="matrix(0.05,0,0,0.05,20.35,0)" xlink:href="#bc"/></g><g id="Q"><use transform="matrix(0.05,0,0,0.05,0,0)" xlink:href="#aY"/><use transform="matrix(0.05,0,0,0.05,12.950000000000001,0)" xlink:href="#aO"/></g><g id="R"><use transform="matrix(0.05,0,0,0.05,0,0)" xlink:href="#bW"/><use transform="matrix(0.05,0,0,0.05,12,0)" xlink:href="#bj"/><use transform="matrix(0.05,0,0,0.05,22,0)" xlink:href="#bj"/><use transform="matrix(0.05,0,0,0.05,32,0)" xlink:href="#aJ"/><use transform="matrix(0.05,0,0,0.05,42,0)" xlink:href="#aP"/><use transform="matrix(0.05,0,0,0.05,52,0)" xlink:href="#aK"/></g><path d="M141 0L90-78 38 0H4l68-98-65-92h35l48 74 47-74h35l-64 92 68 98h-35" id="cd"/><g id="S"><use transform="matrix(0.05,0,0,0.05,0,0)" xlink:href="#aP"/><use transform="matrix(0.05,0,0,0.05,10,0)" xlink:href="#aJ"/><use transform="matrix(0.05,0,0,0.05,20,0)" xlink:href="#cd"/><use transform="matrix(0.05,0,0,0.05,29,0)" xlink:href="#aN"/></g><g id="T"><use transform="matrix(0.05,0,0,0.05,0,0)" xlink:href="#aH"/><use transform="matrix(0.05,0,0,0.05,9,0)" xlink:href="#aI"/><use transform="matrix(0.05,0,0,0.05,19,0)" xlink:href="#bh"/><use transform="matrix(0.05,0,0,0.05,29,0)" xlink:href="#aP"/><use transform="matrix(0.05,0,0,0.05,39,0)" xlink:href="#bV"/></g><g id="U"><use transform="matrix(0.05,0,0,0.05,0,0)" xlink:href="#aX"/><use transform="matrix(0.05,0,0,0.05,5.95,0)" xlink:href="#bf"/><use transform="matrix(0.05,0,0,0.05,17.95,0)" xlink:href="#bh"/><use transform="matrix(0.05,0,0,0.05,27.950000000000003,0)" xlink:href="#bd"/><use transform="matrix(0.05,0,0,0.05,32.599999999999994,0)" xlink:href="#bd"/><use transform="matrix(0.05,0,0,0.05,37.599999999999994,0)" xlink:href="#aJ"/><use transform="matrix(0.05,0,0,0.05,47.599999999999994,0)" xlink:href="#aQ"/><use transform="matrix(0.05,0,0,0.05,53.54999999999999,0)" xlink:href="#be"/></g><path d="M232-93c-1 65-40 97-104 97C67 4 28-28 28-90v-158h33c8 89-33 224 67 224 102 0 64-133 71-224h33v155" id="ce"/><g id="V"><use transform="matrix(0.05,0,0,0.05,0,0)" xlink:href="#ce"/><use transform="matrix(0.05,0,0,0.05,12.950000000000001,0)" xlink:href="#bc"/><use transform="matrix(0.05,0,0,0.05,21.950000000000003,0)" xlink:href="#aJ"/><use transform="matrix(0.05,0,0,0.05,31.950000000000003,0)" xlink:href="#bc"/></g><path d="M77-211l-58-49v-5h36c12 19 30 32 38 54H77" id="cf"/><path d="M16-82v-28h88v28H16" id="cg"/><g id="W"><use transform="matrix(0.05,0,0,0.05,0,0)" xlink:href="#cf"/><use transform="matrix(0.05,0,0,0.05,5.95,0)" xlink:href="#aN"/><use transform="matrix(0.05,0,0,0.05,10.95,0)" xlink:href="#aM"/><use transform="matrix(0.05,0,0,0.05,14.899999999999999,0)" xlink:href="#aP"/><use transform="matrix(0.05,0,0,0.05,24.9,0)" xlink:href="#aR"/><use transform="matrix(0.05,0,0,0.05,33.9,0)" xlink:href="#cg"/><use transform="matrix(0.05,0,0,0.05,39.85,0)" xlink:href="#aN"/><use transform="matrix(0.05,0,0,0.05,44.85,0)" xlink:href="#aO"/><use transform="matrix(0.05,0,0,0.05,54.85,0)" xlink:href="#aG"/><use transform="matrix(0.05,0,0,0.05,64.85,0)" xlink:href="#aN"/><use transform="matrix(0.05,0,0,0.05,69.85,0)" xlink:href="#aM"/><use transform="matrix(0.05,0,0,0.05,73.8,0)" xlink:href="#aJ"/><use transform="matrix(0.05,0,0,0.05,83.8,0)" xlink:href="#cg"/><use transform="matrix(0.05,0,0,0.05,89.75,0)" xlink:href="#aH"/><use transform="matrix(0.05,0,0,0.05,98.75,0)" xlink:href="#aG"/><use transform="matrix(0.05,0,0,0.05,108.75,0)" xlink:href="#aH"/><use transform="matrix(0.05,0,0,0.05,117.75,0)" xlink:href="#aI"/><use transform="matrix(0.05,0,0,0.05,127.75,0)" xlink:href="#aJ"/><use transform="matrix(0.05,0,0,0.05,137.75,0)" xlink:href="#cf"/></g><g id="X"><use transform="matrix(0.05,0,0,0.05,0,0)" xlink:href="#aG"/><use transform="matrix(0.05,0,0,0.05,10,0)" xlink:href="#bc"/></g><g id="Y"><use transform="matrix(0.05,0,0,0.05,0,0)" xlink:href="#aN"/><use transform="matrix(0.05,0,0,0.05,5,0)" xlink:href="#aI"/><use transform="matrix(0.05,0,0,0.05,15,0)" xlink:href="#aJ"/></g><g id="Z"><use transform="matrix(0.05,0,0,0.05,0,0)" xlink:href="#aH"/><use transform="matrix(0.05,0,0,0.05,9,0)" xlink:href="#aG"/><use transform="matrix(0.05,0,0,0.05,19,0)" xlink:href="#aH"/><use transform="matrix(0.05,0,0,0.05,28,0)" xlink:href="#aI"/><use transform="matrix(0.05,0,0,0.05,38,0)" xlink:href="#aJ"/></g><g id="aa"><use transform="matrix(0.05,0,0,0.05,0,0)" xlink:href="#aG"/><use transform="matrix(0.05,0,0,0.05,10,0)" xlink:href="#aP"/><use transform="matrix(0.05,0,0,0.05,20,0)" xlink:href="#aK"/></g><g id="ab"><use transform="matrix(0.05,0,0,0.05,0,0)" xlink:href="#bc"/><use transform="matrix(0.05,0,0,0.05,9,0)" xlink:href="#aN"/><use transform="matrix(0.05,0,0,0.05,14,0)" xlink:href="#aO"/><use transform="matrix(0.05,0,0,0.05,24,0)" xlink:href="#aQ"/><use transform="matrix(0.05,0,0,0.05,29.950000000000003,0)" xlink:href="#aG"/><use transform="matrix(0.05,0,0,0.05,39.95,0)" xlink:href="#cb"/><use transform="matrix(0.05,0,0,0.05,49.95,0)" xlink:href="#aJ"/></g><g id="ac"><use transform="matrix(0.05,0,0,0.05,0,0)" xlink:href="#aJ"/><use transform="matrix(0.05,0,0,0.05,10,0)" xlink:href="#aP"/><use transform="matrix(0.05,0,0,0.05,20,0)" xlink:href="#cb"/><use transform="matrix(0.05,0,0,0.05,30,0)" xlink:href="#aM"/><use transform="matrix(0.05,0,0,0.05,33.95,0)" xlink:href="#aP"/><use transform="matrix(0.05,0,0,0.05,43.95,0)" xlink:href="#aJ"/><use transform="matrix(0.05,0,0,0.05,53.95,0)" xlink:href="#aZ"/></g><path d="M140-251c80 0 125 45 125 126S219 4 139 4C58 4 15-44 15-125s44-126 125-126zm-1 214c52 0 73-35 73-88 0-50-21-86-72-86-52 0-73 35-73 86s22 88 72 88" id="ch"/><path d="M85 4C-2 5 27-109 22-190h50c7 57-23 150 33 157 60-5 35-97 40-157h50l1 190h-47c-2-12 1-28-3-38-12 25-28 42-61 42" id="ci"/><g id="ad"><use transform="matrix(0.05,0,0,0.05,0,0)" xlink:href="#ch"/><use transform="matrix(0.05,0,0,0.05,14,0)" xlink:href="#ci"/><use transform="matrix(0.05,0,0,0.05,24.950000000000003,0)" xlink:href="#bo"/><use transform="matrix(0.05,0,0,0.05,30.900000000000002,0)" xlink:href="#br"/><use transform="matrix(0.05,0,0,0.05,41.85,0)" xlink:href="#ci"/><use transform="matrix(0.05,0,0,0.05,52.800000000000004,0)" xlink:href="#bo"/></g><g id="ae"><use transform="matrix(0.05,0,0,0.05,0,0)" xlink:href="#bm"/><use transform="matrix(0.05,0,0,0.05,10.950000000000001,0)" xlink:href="#bq"/><use transform="matrix(0.05,0,0,0.05,20.950000000000003,0)" xlink:href="#bu"/><use transform="matrix(0.05,0,0,0.05,30.950000000000003,0)" xlink:href="#bo"/></g><path d="M190-63c-7 42-38 67-86 67-59 0-84-38-90-98-12-110 154-137 174-36l-49 2c-2-19-15-32-35-32-30 0-35 28-38 64-6 74 65 87 74 30" id="cj"/><path d="M220-157c-53 9-28 100-34 157h-49v-107c1-27-5-49-29-50C55-147 81-57 75 0H25l-1-190h47c2 12-1 28 3 38 10-53 101-56 108 0 13-22 24-43 59-42 82 1 51 116 57 194h-49v-107c-1-25-5-48-29-50" id="ck"/><path d="M137-138c1-29-70-34-71-4 15 46 118 7 119 86 1 83-164 76-172 9l43-7c4 19 20 25 44 25 33 8 57-30 24-41C81-84 22-81 20-136c-2-80 154-74 161-7" id="cl"/><g id="af"><use transform="matrix(0.05,0,0,0.05,0,0)" xlink:href="#cj"/><use transform="matrix(0.05,0,0,0.05,10,0)" xlink:href="#bY"/><use transform="matrix(0.05,0,0,0.05,20.950000000000003,0)" xlink:href="#ck"/><use transform="matrix(0.05,0,0,0.05,36.95,0)" xlink:href="#br"/><use transform="matrix(0.05,0,0,0.05,47.900000000000006,0)" xlink:href="#bs"/><use transform="matrix(0.05,0,0,0.05,54.900000000000006,0)" xlink:href="#bq"/><use transform="matrix(0.05,0,0,0.05,64.9,0)" xlink:href="#cl"/><use transform="matrix(0.05,0,0,0.05,74.9,0)" xlink:href="#cl"/><use transform="matrix(0.05,0,0,0.05,84.9,0)" xlink:href="#bl"/><use transform="matrix(0.05,0,0,0.05,89.9,0)" xlink:href="#bY"/><use transform="matrix(0.05,0,0,0.05,100.85000000000001,0)" xlink:href="#bm"/></g><path d="M133-34C117-15 103 5 69 4 32 3 11-16 11-54c-1-60 55-63 116-61 1-26-3-47-28-47-18 1-26 9-28 27l-52-2c7-38 36-58 82-57s74 22 75 68l1 82c-1 14 12 18 25 15v27c-30 8-71 5-69-32zm-48 3c29 0 43-24 42-57-32 0-66-3-65 30 0 17 8 27 23 27" id="cm"/><path d="M35-132v-50h50v50H35zM35 0v-49h50V0H35" id="cn"/><g id="ag"><use transform="matrix(0.05,0,0,0.05,0,0)" xlink:href="#br"/><use transform="matrix(0.05,0,0,0.05,10.950000000000001,0)" xlink:href="#cm"/><use transform="matrix(0.05,0,0,0.05,20.950000000000003,0)" xlink:href="#cj"/><use transform="matrix(0.05,0,0,0.05,30.950000000000003,0)" xlink:href="#bZ"/><use transform="matrix(0.05,0,0,0.05,40.95,0)" xlink:href="#bq"/><use transform="matrix(0.05,0,0,0.05,50.95,0)" xlink:href="#bo"/><use transform="matrix(0.05,0,0,0.05,56.900000000000006,0)" xlink:href="#cn"/></g><path d="M44-68c0 29 11 47 38 47 30 0 42-19 51-41l28 9C148-21 126 4 82 4 31 4 10-29 12-85c3-77 74-140 146-93 12 8 15 23 18 40l-31 5c-1-22-13-36-36-36-52 0-65 49-65 101" id="co"/><g id="ah"><use transform="matrix(0.05,0,0,0.05,0,0)" xlink:href="#co"/><use transform="matrix(0.05,0,0,0.05,9,0)" xlink:href="#bF"/><use transform="matrix(0.05,0,0,0.05,14.949999999999998,0)" xlink:href="#bC"/><use transform="matrix(0.05,0,0,0.05,24.95,0)" xlink:href="#bE"/><use transform="matrix(0.05,0,0,0.05,34.95,0)" xlink:href="#bA"/><use transform="matrix(0.05,0,0,0.05,39.95,0)" xlink:href="#bC"/></g><g id="ai"><use transform="matrix(0.05,0,0,0.05,0,0)" xlink:href="#bE"/><use transform="matrix(0.05,0,0,0.05,10,0)" xlink:href="#by"/></g><path d="M20-101c0-91 52-143 145-150 126-9 127 168 53 223-23 17-55 32-93 32C57 4 20-33 20-101zm216-33c5-57-18-91-73-90-77 1-110 51-110 125 0 49 23 75 73 75 72-1 104-45 110-110" id="cp"/><path d="M51-231l6-30h31l-6 30H51zM33 24C28 60 2 84-40 72c3-12-1-29 18-22C-5 49-1 37 2 19l41-209h32" id="cq"/><g id="aj"><use transform="matrix(0.05,0,0,0.05,0,0)" xlink:href="#cp"/><use transform="matrix(0.05,0,0,0.05,14,0)" xlink:href="#bI"/><use transform="matrix(0.05,0,0,0.05,24,0)" xlink:href="#cq"/><use transform="matrix(0.05,0,0,0.05,27.950000000000003,0)" xlink:href="#bC"/><use transform="matrix(0.05,0,0,0.05,37.95,0)" xlink:href="#co"/><use transform="matrix(0.05,0,0,0.05,46.95,0)" xlink:href="#bA"/></g><g id="ak"><use transform="matrix(0.05,0,0,0.05,0,0)" xlink:href="#bP"/><use transform="matrix(0.05,0,0,0.05,12.950000000000001,0)" xlink:href="#bx"/><use transform="matrix(0.05,0,0,0.05,16.900000000000002,0)" xlink:href="#bA"/><use transform="matrix(0.05,0,0,0.05,21.900000000000002,0)" xlink:href="#bB"/></g><path d="M127 0L80-88 50-66 37 0H6l51-261h31L57-100l99-90h39l-93 82L161 0h-34" id="cr"/><path d="M58-38C53-5 46 26 28 46H7C19 32 27 18 32 0H17l7-38h34" id="cs"/><g id="al"><use transform="matrix(0.05,0,0,0.05,0,0)" xlink:href="#bA"/><use transform="matrix(0.05,0,0,0.05,5,0)" xlink:href="#bL"/><use transform="matrix(0.05,0,0,0.05,15,0)" xlink:href="#cr"/><use transform="matrix(0.05,0,0,0.05,24,0)" xlink:href="#bC"/><use transform="matrix(0.05,0,0,0.05,34,0)" xlink:href="#by"/><path d="M-.9 1.25h45.8v1.32H-.9z"/><use transform="matrix(0.05,0,0,0.05,44,0)" xlink:href="#cs"/></g><g id="am"><use transform="matrix(0.05,0,0,0.05,0,0)" xlink:href="#bR"/><use transform="matrix(0.05,0,0,0.05,10,0)" xlink:href="#bF"/><use transform="matrix(0.05,0,0,0.05,15.949999999999998,0)" xlink:href="#bC"/><use transform="matrix(0.05,0,0,0.05,25.950000000000003,0)" xlink:href="#bK"/><use transform="matrix(0.05,0,0,0.05,30.950000000000003,0)" xlink:href="#bx"/><use transform="matrix(0.05,0,0,0.05,34.9,0)" xlink:href="#bS"/><path d="M-.9 1.25h45.7v1.32H-.9z"/></g><g id="an"><use transform="matrix(0.05,0,0,0.05,0,0)" xlink:href="#bE"/><use transform="matrix(0.05,0,0,0.05,10,0)" xlink:href="#by"/><use transform="matrix(0.05,0,0,0.05,20,0)" xlink:href="#bz"/></g><g id="ao"><use transform="matrix(0.05,0,0,0.05,0,0)" xlink:href="#bR"/><use transform="matrix(0.05,0,0,0.05,10,0)" xlink:href="#bF"/><use transform="matrix(0.05,0,0,0.05,15.949999999999998,0)" xlink:href="#bC"/><use transform="matrix(0.05,0,0,0.05,25.950000000000003,0)" xlink:href="#bK"/><use transform="matrix(0.05,0,0,0.05,30.950000000000003,0)" xlink:href="#bx"/><use transform="matrix(0.05,0,0,0.05,34.9,0)" xlink:href="#bS"/><path d="M-.9 1.25h50.7v1.32H-.9z"/></g><g id="ap"><use transform="matrix(0.05,0,0,0.05,0,0)" xlink:href="#bD"/><use transform="matrix(0.05,0,0,0.05,3.95,0)" xlink:href="#bC"/><use transform="matrix(0.05,0,0,0.05,13.949999999999998,0)" xlink:href="#by"/><use transform="matrix(0.05,0,0,0.05,23.95,0)" xlink:href="#bG"/><use transform="matrix(0.05,0,0,0.05,33.95,0)" xlink:href="#bA"/><use transform="matrix(0.05,0,0,0.05,38.95,0)" xlink:href="#bB"/><path d="M-.9 1.25h50.75v1.32H-.9z"/></g><g id="aq"><use transform="matrix(0.05,0,0,0.05,0,0)" xlink:href="#bb"/><use transform="matrix(0.05,0,0,0.05,10.3,0)" xlink:href="#aQ"/><use transform="matrix(0.05,0,0,0.05,16.25,0)" xlink:href="#aJ"/><use transform="matrix(0.05,0,0,0.05,26.25,0)" xlink:href="#aG"/><use transform="matrix(0.05,0,0,0.05,36.25,0)" xlink:href="#aN"/></g><g id="ar"><use transform="matrix(0.05,0,0,0.05,0,0)" xlink:href="#aH"/><use transform="matrix(0.05,0,0,0.05,9,0)" xlink:href="#aM"/><use transform="matrix(0.05,0,0,0.05,12.949999999999998,0)" xlink:href="#aQ"/><use transform="matrix(0.05,0,0,0.05,18.9,0)" xlink:href="#aH"/><use transform="matrix(0.05,0,0,0.05,27.899999999999995,0)" xlink:href="#bh"/><use transform="matrix(0.05,0,0,0.05,37.9,0)" xlink:href="#ca"/><use transform="matrix(0.05,0,0,0.05,41.85,0)" xlink:href="#aG"/><use transform="matrix(0.05,0,0,0.05,51.85,0)" xlink:href="#aQ"/></g><g id="as"><use transform="matrix(0.05,0,0,0.05,0,0)" xlink:href="#ca"/><use transform="matrix(0.05,0,0,0.05,3.95,0)" xlink:href="#aO"/><use transform="matrix(0.05,0,0,0.05,13.949999999999998,0)" xlink:href="#cb"/><use transform="matrix(0.05,0,0,0.05,23.95,0)" xlink:href="#aM"/><use transform="matrix(0.05,0,0,0.05,27.899999999999995,0)" xlink:href="#aH"/></g><path d="M206 0h-36l-40-164L89 0H53L-1-190h32L70-26l43-164h34l41 164 42-164h31" id="ct"/><g id="at"><use transform="matrix(0.05,0,0,0.05,0,0)" xlink:href="#bd"/><use transform="matrix(0.05,0,0,0.05,5,0)" xlink:href="#ca"/><use transform="matrix(0.05,0,0,0.05,8.95,0)" xlink:href="#aO"/><use transform="matrix(0.05,0,0,0.05,18.95,0)" xlink:href="#ct"/></g><use transform="matrix(0.05,0,0,0.05,0,0)" xlink:href="#aG" id="au"/><path d="M24-231v-30h32v30H24zM-9 49c24 4 33-6 33-30v-209h32V24c2 40-23 58-65 49V49" id="cu"/><g id="av"><use transform="matrix(0.05,0,0,0.05,0,0)" xlink:href="#aY"/><use transform="matrix(0.05,0,0,0.05,12.950000000000001,0)" xlink:href="#aO"/><use transform="matrix(0.05,0,0,0.05,22.950000000000003,0)" xlink:href="#aK"/><use transform="matrix(0.05,0,0,0.05,32.95,0)" xlink:href="#aJ"/><use transform="matrix(0.05,0,0,0.05,42.95,0)" xlink:href="#aZ"/><use transform="matrix(0.05,0,0,0.05,47.95,0)" xlink:href="#cu"/><use transform="matrix(0.05,0,0,0.05,51.900000000000006,0)" xlink:href="#bc"/></g><g id="aw"><use transform="matrix(0.05,0,0,0.05,0,0)" xlink:href="#bd"/><use transform="matrix(0.05,0,0,0.05,5,0)" xlink:href="#aM"/><use transform="matrix(0.05,0,0,0.05,8.95,0)" xlink:href="#ca"/><use transform="matrix(0.05,0,0,0.05,12.899999999999999,0)" xlink:href="#aJ"/></g><g id="ax"><use transform="matrix(0.05,0,0,0.05,0,0)" xlink:href="#aM"/><use transform="matrix(0.05,0,0,0.05,3.95,0)" xlink:href="#aP"/><use transform="matrix(0.05,0,0,0.05,13.949999999999998,0)" xlink:href="#bj"/><use transform="matrix(0.05,0,0,0.05,23.95,0)" xlink:href="#bh"/><use transform="matrix(0.05,0,0,0.05,33.95,0)" xlink:href="#aN"/></g><g id="ay"><use transform="matrix(0.05,0,0,0.05,0,0)" xlink:href="#bc"/><use transform="matrix(0.05,0,0,0.05,9,0)" xlink:href="#aN"/><use transform="matrix(0.05,0,0,0.05,14,0)" xlink:href="#aQ"/><use transform="matrix(0.05,0,0,0.05,19.95,0)" xlink:href="#aJ"/><use transform="matrix(0.05,0,0,0.05,29.950000000000003,0)" xlink:href="#aG"/><use transform="matrix(0.05,0,0,0.05,39.95,0)" xlink:href="#aW"/></g><g id="az"><use transform="matrix(0.05,0,0,0.05,0,0)" xlink:href="#bj"/><use transform="matrix(0.05,0,0,0.05,10,0)" xlink:href="#aM"/><use transform="matrix(0.05,0,0,0.05,13.949999999999998,0)" xlink:href="#bj"/><use transform="matrix(0.05,0,0,0.05,23.95,0)" xlink:href="#aJ"/><use transform="matrix(0.05,0,0,0.05,33.95,0)" xlink:href="#aK"/></g><g id="aA"><use transform="matrix(0.05,0,0,0.05,0,0)" xlink:href="#aM"/><use transform="matrix(0.05,0,0,0.05,3.95,0)" xlink:href="#aP"/><use transform="matrix(0.05,0,0,0.05,13.949999999999998,0)" xlink:href="#aN"/><use transform="matrix(0.05,0,0,0.05,18.95,0)" xlink:href="#aO"/></g><g id="aB"><use transform="matrix(0.05,0,0,0.05,0,0)" xlink:href="#aG"/><use transform="matrix(0.05,0,0,0.05,10,0)" xlink:href="#aP"/></g><g id="aC"><use transform="matrix(0.05,0,0,0.05,0,0)" xlink:href="#aM"/><use transform="matrix(0.05,0,0,0.05,3.95,0)" xlink:href="#aP"/><use transform="matrix(0.05,0,0,0.05,13.949999999999998,0)" xlink:href="#bc"/><use transform="matrix(0.05,0,0,0.05,22.95,0)" xlink:href="#aN"/><use transform="matrix(0.05,0,0,0.05,27.950000000000003,0)" xlink:href="#aG"/><use transform="matrix(0.05,0,0,0.05,37.95,0)" xlink:href="#aP"/><use transform="matrix(0.05,0,0,0.05,47.95,0)" xlink:href="#aH"/><use transform="matrix(0.05,0,0,0.05,56.95,0)" xlink:href="#aJ"/></g><g id="aD"><use transform="matrix(0.05,0,0,0.05,0,0)" xlink:href="#aO"/><use transform="matrix(0.05,0,0,0.05,10,0)" xlink:href="#bd"/></g><path d="M24 0v-248h52v208h133V0H24" id="cv"/><path d="M135-194c52 0 70 43 70 98 0 56-19 99-73 100-30 1-46-15-58-35L72 0H24l1-261h50v104c11-23 29-37 60-37zM114-30c31 0 40-27 40-66 0-37-7-63-39-63s-41 28-41 65c0 36 8 64 40 64" id="cw"/><path d="M12 0v-35l95-120H19v-35h142v35L67-36h103V0H12" id="cx"/><path d="M169-182c-1-43-94-46-97-3 18 66 151 10 154 114 3 95-165 93-204 36-6-8-10-19-12-30l50-8c3 46 112 56 116 5-17-69-150-10-154-114-4-87 153-88 188-35 5 8 8 18 10 28" id="cy"/><g id="aE"><use transform="matrix(0.05,0,0,0.05,0,0)" xlink:href="#cv"/><use transform="matrix(0.05,0,0,0.05,10.950000000000001,0)" xlink:href="#bl"/><use transform="matrix(0.05,0,0,0.05,15.950000000000001,0)" xlink:href="#cw"/><use transform="matrix(0.05,0,0,0.05,26.900000000000002,0)" xlink:href="#cx"/><use transform="matrix(0.05,0,0,0.05,35.900000000000006,0)" xlink:href="#cy"/><use transform="matrix(0.05,0,0,0.05,47.900000000000006,0)" xlink:href="#bo"/><use transform="matrix(0.05,0,0,0.05,53.85,0)" xlink:href="#bs"/><use transform="matrix(0.05,0,0,0.05,60.85,0)" xlink:href="#bq"/><use transform="matrix(0.05,0,0,0.05,70.85000000000001,0)" xlink:href="#cm"/><use transform="matrix(0.05,0,0,0.05,80.85000000000001,0)" xlink:href="#ck"/></g></defs></g></svg>