<svg xmlns="http://www.w3.org/2000/svg" xmlns:xlink="http://www.w3.org/1999/xlink" xmlns:lucid="lucid" width="1853.6" height="1211.6"><g transform="translate(-4.800000000000068 0)" lucid:page-tab-id="0_0"><path d="M0 0h1870.4v1323.2H0z" fill="#fff"/><path d="M36 991.6h1798.4v200H36z" stroke="#000" stroke-width="2" fill="#fff"/><use xlink:href="#a" transform="matrix(1,0,0,1,41,996.5999999999999) translate(0 21.328125)"/><use xlink:href="#b" transform="matrix(1,0,0,1,41,996.5999999999999) translate(0 47.99479166666667)"/><use xlink:href="#c" transform="matrix(1,0,0,1,41,996.5999999999999) translate(32.005208333333336 47.99479166666667)"/><use xlink:href="#b" transform="matrix(1,0,0,1,41,996.5999999999999) translate(0 74.66145833333334)"/><use xlink:href="#d" transform="matrix(1,0,0,1,41,996.5999999999999) translate(32.005208333333336 74.66145833333334)"/><use xlink:href="#b" transform="matrix(1,0,0,1,41,996.5999999999999) translate(0 101.328125)"/><use xlink:href="#e" transform="matrix(1,0,0,1,41,996.5999999999999) translate(32.005208333333336 101.328125)"/><path d="M404.8 191.6H1280v160H404.8zM1064 702h774.4v160H1064z" stroke="#000" stroke-width="2" fill="#fff"/><use xlink:href="#f" transform="matrix(1,0,0,1,1069.0000000000005,706.9999999999999) translate(382.5 67.8)"/><use xlink:href="#g" transform="matrix(1,0,0,1,1069.0000000000005,706.9999999999999) translate(382.5 89.4)"/><path d="M654.4 702h364.8v160H654.4z" stroke="#000" stroke-width="2" fill="#fff"/><use xlink:href="#f" transform="matrix(1,0,0,1,659.4000000000002,706.9999999999999) translate(177.5 67.8)"/><use xlink:href="#g" transform="matrix(1,0,0,1,659.4000000000002,706.9999999999999) translate(177.5 89.4)"/><path d="M244.8 702h364.8v160H244.8z" stroke="#000" stroke-width="2" fill="#fff"/><use xlink:href="#f" transform="matrix(1,0,0,1,249.80000000000007,706.9999999999999) translate(177.5 67.8)"/><use xlink:href="#g" transform="matrix(1,0,0,1,249.80000000000007,706.9999999999999) translate(177.5 89.4)"/><path d="M449.6 191.6h160v160h-160z" stroke="#000" stroke-width="2" fill="#fff"/><use xlink:href="#h" transform="matrix(1,0,0,1,454.60000000000014,196.5999999999999) translate(21.66666666666667 128)"/><path d="M654.4 191.6h160v160h-160z" stroke="#000" stroke-width="2" fill="#fff"/><use xlink:href="#i" transform="matrix(1,0,0,1,659.4000000000003,196.5999999999999) translate(21.66666666666667 128)"/><path d="M859.2 191.6h160v160h-160z" stroke="#000" stroke-width="2" fill="#fff"/><use xlink:href="#h" transform="matrix(1,0,0,1,864.2000000000004,196.5999999999999) translate(21.66666666666667 128)"/><path d="M1064 191.6h160v160h-160z" stroke="#000" stroke-width="2" fill="#fff"/><use xlink:href="#i" transform="matrix(1,0,0,1,1069.0000000000005,196.5999999999999) translate(21.66666666666667 128)"/><path d="M40 702h160v160H40z" stroke="#000" stroke-width="2" fill="#fff"/><use xlink:href="#h" transform="matrix(1,0,0,1,45,706.9999999999999) translate(21.66666666666667 128)"/><path d="M244.8 702h160v160h-160z" fill="#fff"/><path d="M280.36 702h35.55m17.8 0h35.54m17.78 0h17.78v17.78m0 17.78v35.55m0 17.8v35.54m0 17.78V862h-17.78m-17.78 0H333.7m-17.8 0h-35.54m-17.78 0H244.8v-17.78m0-17.78V790.9m0-17.8v-35.54m0-17.78V702h17.78" stroke="#000" stroke-width="4" fill="none"/><use xlink:href="#h" transform="matrix(1,0,0,1,249.80000000000007,706.9999999999999) translate(21.66666666666667 128)"/><path d="M449.6 702h160v160h-160z" stroke="#000" stroke-width="4" fill="#fff"/><use xlink:href="#j" transform="matrix(1,0,0,1,454.60000000000014,706.9999999999999) translate(21.66666666666667 128)"/><path d="M654.4 702h160v160h-160z" fill="#fff"/><path d="M689.96 702h35.55m17.8 0h35.54m17.78 0h17.78v17.78m0 17.78v35.55m0 17.8v35.54m0 17.78V862h-17.78m-17.78 0H743.3m-17.8 0h-35.54m-17.78 0H654.4v-17.78m0-17.78V790.9m0-17.8v-35.54m0-17.78V702h17.78" stroke="#000" stroke-width="4" fill="none"/><use xlink:href="#h" transform="matrix(1,0,0,1,659.4000000000002,706.9999999999999) translate(21.66666666666667 128)"/><path d="M859.2 702h160v160h-160z" stroke="#000" stroke-width="4" fill="#fff"/><use xlink:href="#k" transform="matrix(1,0,0,1,864.2000000000003,706.9999999999999) translate(21.66666666666667 128)"/><path d="M1268.8 702h160v160h-160z" fill="#fff"/><path d="M1304.36 702h35.55m17.8 0h35.54m17.78 0h17.78v17.78m0 17.78v35.55m0 17.8v35.54m0 17.78V862h-17.78m-17.78 0h-35.55m-17.8 0h-35.54m-17.78 0h-17.78v-17.78m0-17.78V790.9m0-17.8v-35.54m0-17.78V702h17.78" stroke="#000" stroke-width="4" fill="none"/><use xlink:href="#i" transform="matrix(1,0,0,1,1273.8000000000002,706.9999999999999) translate(21.66666666666667 128)"/><path d="M1064 702h160v160h-160z" fill="#fff"/><path d="M1099.56 702h35.55m17.8 0h35.54m17.78 0H1224v17.78m0 17.78v35.55m0 17.8v35.54m0 17.78V862h-17.78m-17.78 0h-35.55m-17.8 0h-35.54m-17.78 0H1064v-17.78m0-17.78V790.9m0-17.8v-35.54m0-17.78V702h17.78" stroke="#000" stroke-width="4" fill="none"/><use xlink:href="#h" transform="matrix(1,0,0,1,1069,706.9999999999999) translate(21.66666666666667 128)"/><path d="M1473.6 702h160v160h-160z" fill="#fff"/><path d="M1509.16 702h35.55m17.8 0h35.54m17.78 0h17.78v17.78m0 17.78v35.55m0 17.8v35.54m0 17.78V862h-17.78m-17.78 0h-35.55m-17.8 0h-35.54m-17.78 0h-17.78v-17.78m0-17.78V790.9m0-17.8v-35.54m0-17.78V702h17.78" stroke="#000" stroke-width="4" fill="none"/><use xlink:href="#h" transform="matrix(1,0,0,1,1478.6,706.9999999999999) translate(21.66666666666667 128)"/><path d="M1678.4 702h160v160h-160z" stroke="#000" stroke-width="4" fill="#fff"/><use xlink:href="#l" transform="matrix(1,0,0,1,1683.3999999999996,706.9999999999999) translate(21.66666666666667 128)"/><path d="M529.6 353.6v198H120V700" stroke="#000" stroke-width="2" fill="none"/><path d="M530.6 353.63h-2v-1.03h2zM121 701h-2v-1.03h2z"/><path d="M734.4 353.6v328H532.7V700" stroke="#000" stroke-width="2" fill="none"/><path d="M735.4 353.63h-2v-1.03h2zM533.7 701h-2v-1.03h2z"/><path d="M1144 353.6v198h612.96V700" stroke="#000" stroke-width="2" fill="none"/><path d="M1145 353.63h-2v-1.03h2zM1757.96 701h-2v-1.03h2z"/><path d="M939.2 353.6V699" stroke="#000" stroke-width="2" fill="none"/><path d="M940.2 353.63h-2v-1.03h2zM940.2 700h-2v-1.03h2z"/><path d="M1028.8 131.6h240v60h-240z" stroke="#000" stroke-opacity="0" stroke-width="2" fill="#fff" fill-opacity="0"/><use xlink:href="#m" transform="matrix(1,0,0,1,1033.8000000000466,136.5999999999999) translate(103.88888888888889 33)"/><path d="M824 131.6h240v60H824z" stroke="#000" stroke-opacity="0" stroke-width="2" fill="#fff" fill-opacity="0"/><use xlink:href="#n" transform="matrix(1,0,0,1,829.0000000000006,136.5999999999999) translate(103.88888888888889 33)"/><path d="M619.2 131.6h240v60h-240z" stroke="#000" stroke-opacity="0" stroke-width="2" fill="#fff" fill-opacity="0"/><use xlink:href="#o" transform="matrix(1,0,0,1,624.2000000000004,136.5999999999999) translate(103.88888888888889 33)"/><path d="M420 131.6h240v60H420z" stroke="#000" stroke-opacity="0" stroke-width="2" fill="#fff" fill-opacity="0"/><use xlink:href="#p" transform="matrix(1,0,0,1,425,136.5999999999999) translate(103.88888888888889 33)"/><path d="M528 1011.6h177.6v160H528z" fill="#fff"/><path d="M545.76 1011.6H528v160h17.76" stroke="#000" stroke-width="2" fill="none"/><use xlink:href="#q" transform="matrix(1,0,0,1,544.1000000001173,1016.5999999999999) translate(0 70.99609375)"/><use xlink:href="#r" transform="matrix(1,0,0,1,544.1000000001173,1016.5999999999999) translate(84.013671875 70.99609375)"/><use xlink:href="#s" transform="matrix(1,0,0,1,544.1000000001173,1016.5999999999999) translate(0 90.99609375)"/><use xlink:href="#t" transform="matrix(1,0,0,1,544.1000000001173,1016.5999999999999) translate(96.015625 90.99609375)"/><path d="M739.2 1016.6h187.2v150H739.2z" fill="#fff"/><path d="M757.92 1016.6H739.2v150h18.72" stroke="#000" stroke-width="2" fill="none"/><use xlink:href="#q" transform="matrix(1,0,0,1,755.900000000069,1021.5999999999999) translate(0 15.99609375)"/><use xlink:href="#u" transform="matrix(1,0,0,1,755.900000000069,1021.5999999999999) translate(84.013671875 15.99609375)"/><use xlink:href="#s" transform="matrix(1,0,0,1,755.900000000069,1021.5999999999999) translate(0 35.99609375)"/><use xlink:href="#v" transform="matrix(1,0,0,1,755.900000000069,1021.5999999999999) translate(96.015625 35.99609375)"/><use xlink:href="#w" transform="matrix(1,0,0,1,755.900000000069,1021.5999999999999) translate(36.01 55.99609375)"/><use xlink:href="#x" transform="matrix(1,0,0,1,755.900000000069,1021.5999999999999) translate(132.025625 55.99609375)"/><use xlink:href="#y" transform="matrix(1,0,0,1,755.900000000069,1021.5999999999999) translate(36.01 75.99609375)"/><use xlink:href="#z" transform="matrix(1,0,0,1,755.900000000069,1021.5999999999999) translate(132.025625 75.99609375)"/><use xlink:href="#A" transform="matrix(1,0,0,1,755.900000000069,1021.5999999999999) translate(0 95.99609375)"/><path d="M960 1016.6h186.4v150H960z" fill="#fff"/><path d="M978.64 1016.6H960v150h18.64" stroke="#000" stroke-width="2" fill="none"/><g><use xlink:href="#q" transform="matrix(1,0,0,1,976.650000000003,1021.5999999999999) translate(0 15.99609375)"/><use xlink:href="#r" transform="matrix(1,0,0,1,976.650000000003,1021.5999999999999) translate(84.013671875 15.99609375)"/><use xlink:href="#s" transform="matrix(1,0,0,1,976.650000000003,1021.5999999999999) translate(0 35.99609375)"/><use xlink:href="#v" transform="matrix(1,0,0,1,976.650000000003,1021.5999999999999) translate(96.015625 35.99609375)"/><use xlink:href="#w" transform="matrix(1,0,0,1,976.650000000003,1021.5999999999999) translate(36.01 55.99609375)"/><use xlink:href="#B" transform="matrix(1,0,0,1,976.650000000003,1021.5999999999999) translate(132.025625 55.99609375)"/><use xlink:href="#y" transform="matrix(1,0,0,1,976.650000000003,1021.5999999999999) translate(36.01 75.99609375)"/><use xlink:href="#z" transform="matrix(1,0,0,1,976.650000000003,1021.5999999999999) translate(132.025625 75.99609375)"/><use xlink:href="#A" transform="matrix(1,0,0,1,976.650000000003,1021.5999999999999) translate(0 95.99609375)"/></g><path d="M1180 1016.6h177.6v150H1180z" fill="#fff"/><path d="M1197.76 1016.6H1180v150h17.76" stroke="#000" stroke-width="2" fill="none"/><g><use xlink:href="#q" transform="matrix(1,0,0,1,1196.1,1021.5999999999999) translate(0 15.99609375)"/><use xlink:href="#u" transform="matrix(1,0,0,1,1196.1,1021.5999999999999) translate(84.013671875 15.99609375)"/><use xlink:href="#s" transform="matrix(1,0,0,1,1196.1,1021.5999999999999) translate(0 35.99609375)"/><use xlink:href="#v" transform="matrix(1,0,0,1,1196.1,1021.5999999999999) translate(96.015625 35.99609375)"/><use xlink:href="#w" transform="matrix(1,0,0,1,1196.1,1021.5999999999999) translate(36.01 55.99609375)"/><use xlink:href="#x" transform="matrix(1,0,0,1,1196.1,1021.5999999999999) translate(132.025625 55.99609375)"/><use xlink:href="#y" transform="matrix(1,0,0,1,1196.1,1021.5999999999999) translate(36.01 75.99609375)"/><use xlink:href="#C" transform="matrix(1,0,0,1,1196.1,1021.5999999999999) translate(132.025625 75.99609375)"/><use xlink:href="#A" transform="matrix(1,0,0,1,1196.1,1021.5999999999999) translate(0 95.99609375)"/></g><path d="M529.6 865v16.6h302.2v134" stroke="#000" stroke-width="2" fill="none"/><path d="M530.6 865.03h-2V864h2zM830.8 1016.6v-1.03h2v1.03z"/><path d="M1053.2 1015.6v-64H942.3V864" stroke="#000" stroke-width="2" fill="none"/><path d="M1052.2 1016.6v-1.03h2v1.03zM943.3 864.03h-2V863h2z"/><path d="M1268.8 1015.6v-64h492.22V864" stroke="#000" stroke-width="2" fill="none"/><path d="M1267.8 1016.6v-1.03h2v1.03zM1762.02 864.03h-2V863h2z"/><path d="M24.8 20h380v84.67h-380z" stroke="#000" stroke-opacity="0" stroke-width="2" fill="#fff" fill-opacity="0"/><g><use xlink:href="#D" transform="matrix(1,0,0,1,29.800000000000068,25) translate(7.6378038194444 46.82725694444444)"/><use xlink:href="#E" transform="matrix(1,0,0,1,29.800000000000068,25) translate(100.98632812499997 46.82725694444444)"/><use xlink:href="#F" transform="matrix(1,0,0,1,29.800000000000068,25) translate(231.67426215277777 46.82725694444444)"/></g><path d="M616.8 1010.6v-59H120V864" stroke="#000" stroke-width="2" fill="none"/><path d="M615.8 1011.6v-1.03h2v1.03zM121 864.03h-2V863h2z"/><defs><path d="M655-135c108 0 195-33 260-74v-336H622v-160h479v572C981-54 839 20 639 20c-388 0-526-306-526-701 0-406 129-689 529-689 261 0 392 137 461 331l-171 56c-47-131-122-231-288-231-281 0-330 245-330 533 0 179 28 314 84 407s142 139 257 139" id="G"/><path d="M617-1102c355 0 481 238 477 599H322c5 222 84 388 301 388 144 0 244-59 284-166l158 45C1002-72 854 20 623 20c-342 0-490-220-490-568 0-346 151-554 484-554zm291 461c-18-192-90-328-289-328-194 0-287 128-295 328h584" id="H"/><path d="M706-1102c241 0 344 136 343 381V0H868v-695c1-168-57-273-220-268-190 6-283 138-283 336V0H185c-3-360 6-732-6-1082h170c4 54 7 126 8 185h3c63-121 164-204 346-205" id="I"/><path d="M839-1102c70 0 148 7 206 17v167c-112-18-268-36-363 15-129 69-208 203-208 395V0H294c-10-367 32-789-52-1082h171c21 75 41 161 48 250h5c67-152 152-270 373-270" id="J"/><path d="M1000-272c3 95 12 159 101 161 21 0 41-3 59-7V-6c-44 10-86 16-139 16-141 2-191-84-197-217h-6C748-76 648 20 446 20c-207 0-318-120-318-322 0-266 194-348 454-354l236-4c12-191-40-305-222-305-140 0-220 47-232 172l-188-17c33-204 181-292 423-292 255 0 401 118 401 364v466zm-683-27c0 109 63 184 175 182 166-3 259-96 306-217 24-65 20-120 20-200-232 7-501-28-501 235" id="K"/><path d="M682 16c-209 0-323-80-324-285v-671H190v-142h170l58-282h120v282h432v142H538v652c2 114 60 155 182 155 106 0 209-16 297-34v137C921-4 806 16 682 16" id="L"/><path d="M865-914c-3-187-2-380-2-570h180v1261c0 76 1 155 6 223H877c-8-49-9-116-10-174h-5C801-44 708 26 530 26c-135 0-234-46-297-139s-95-232-95-419c0-377 131-566 392-566 176 0 271 63 335 184zm-286-51c-222 0-255 197-255 427 0 229 31 425 253 425 237 0 286-195 286-441 0-238-52-411-284-411" id="M"/><g id="c"><use transform="matrix(0.013020833333333334,0,0,0.013020833333333334,0,0)" xlink:href="#G"/><use transform="matrix(0.013020833333333334,0,0,0.013020833333333334,16.002604166666668,0)" xlink:href="#H"/><use transform="matrix(0.013020833333333334,0,0,0.013020833333333334,32.005208333333336,0)" xlink:href="#I"/><use transform="matrix(0.013020833333333334,0,0,0.013020833333333334,48.0078125,0)" xlink:href="#H"/><use transform="matrix(0.013020833333333334,0,0,0.013020833333333334,64.01041666666667,0)" xlink:href="#J"/><use transform="matrix(0.013020833333333334,0,0,0.013020833333333334,80.01302083333334,0)" xlink:href="#K"/><use transform="matrix(0.013020833333333334,0,0,0.013020833333333334,96.01562500000001,0)" xlink:href="#L"/><use transform="matrix(0.013020833333333334,0,0,0.013020833333333334,112.0182291666667,0)" xlink:href="#H"/><use transform="matrix(0.013020833333333334,0,0,0.013020833333333334,128.02083333333334,0)" xlink:href="#M"/></g><path d="M631 20c-350 0-501-215-501-562 0-355 162-560 502-560 250 0 399 118 446 323l-192 14c-23-124-109-196-262-196-242 0-305 171-305 415 1 245 61 427 304 427 151 0 248-77 267-215l190 12C1039-107 883 20 631 20" id="N"/><path d="M615-1102c343 0 484 203 482 560-1 347-147 562-488 562-336 0-475-219-479-562-4-349 156-560 485-560zm-8 989c240 0 301-180 301-429 0-245-55-427-290-427-236 0-299 181-299 427 0 243 61 429 288 429" id="O"/><path d="M904-1102c199 0 220 177 220 381V0H956v-686c-3-114 0-215-60-264-70-33-125-4-158 71-26 56-39 140-39 252V0H531v-686c-3-114-1-215-61-264-78-41-136 24-157 84-24 69-39 159-39 259V0H105c-3-360 6-732-6-1082h149c6 50 3 123 8 175 36-100 83-195 216-195 135 0 166 79 196 196 42-105 93-196 236-196" id="P"/><path d="M698-1104c312 3 392 244 392 558 0 315-82 566-392 566-169 0-277-65-331-184h-5c8 188 2 394 4 589H185V-858c0-76-1-156-6-224h175c6 52 9 120 10 178h4c58-122 150-202 330-200zm-49 991c225 0 255-203 255-433 0-225-32-419-253-419-236 0-285 192-285 441 0 237 53 411 283 411" id="Q"/><path d="M873-819c-18-114-119-146-250-146-163 0-245 50-245 151 0 151 170 148 294 185 182 54 388 94 388 320 0 240-189 325-439 329-245 4-410-69-454-268l159-31c24 133 136 168 295 165 144-2 270-31 270-171 0-164-195-160-331-202-167-52-350-87-350-299 0-218 173-315 413-313 220 2 373 77 412 260" id="R"/><path d="M745-142h380V0H143v-142h422v-798H246v-142h499v940zM545-1292v-192h200v192H545" id="S"/><g id="d"><use transform="matrix(0.013020833333333334,0,0,0.013020833333333334,0,0)" xlink:href="#N"/><use transform="matrix(0.013020833333333334,0,0,0.013020833333333334,16.002604166666668,0)" xlink:href="#O"/><use transform="matrix(0.013020833333333334,0,0,0.013020833333333334,32.005208333333336,0)" xlink:href="#P"/><use transform="matrix(0.013020833333333334,0,0,0.013020833333333334,48.0078125,0)" xlink:href="#Q"/><use transform="matrix(0.013020833333333334,0,0,0.013020833333333334,64.01041666666667,0)" xlink:href="#J"/><use transform="matrix(0.013020833333333334,0,0,0.013020833333333334,80.01302083333334,0)" xlink:href="#H"/><use transform="matrix(0.013020833333333334,0,0,0.013020833333333334,96.01562500000001,0)" xlink:href="#R"/><use transform="matrix(0.013020833333333334,0,0,0.013020833333333334,112.0182291666667,0)" xlink:href="#R"/><use transform="matrix(0.013020833333333334,0,0,0.013020833333333334,128.02083333333334,0)" xlink:href="#S"/><use transform="matrix(0.013020833333333334,0,0,0.013020833333333334,144.0234375,0)" xlink:href="#O"/><use transform="matrix(0.013020833333333334,0,0,0.013020833333333334,160.02604166666666,0)" xlink:href="#I"/></g><path d="M914 0L548-499l-132 98V0H236v-1484h180v927l475-525h211L663-617 1125 0H914" id="T"/><g id="e"><use transform="matrix(0.013020833333333334,0,0,0.013020833333333334,0,0)" xlink:href="#Q"/><use transform="matrix(0.013020833333333334,0,0,0.013020833333333334,16.002604166666668,0)" xlink:href="#K"/><use transform="matrix(0.013020833333333334,0,0,0.013020833333333334,32.005208333333336,0)" xlink:href="#N"/><use transform="matrix(0.013020833333333334,0,0,0.013020833333333334,48.0078125,0)" xlink:href="#T"/><use transform="matrix(0.013020833333333334,0,0,0.013020833333333334,64.01041666666667,0)" xlink:href="#H"/><use transform="matrix(0.013020833333333334,0,0,0.013020833333333334,80.01302083333334,0)" xlink:href="#L"/><use transform="matrix(0.013020833333333334,0,0,0.013020833333333334,96.01562500000001,0)" xlink:href="#R"/></g><path d="M205 0l-28-72H64L36 0H1l101-248h38L239 0h-34zm-38-99l-47-123c-12 45-31 82-46 123h93" id="U"/><use transform="matrix(0.4444444444444444,0,0,0.4444444444444444,0,0)" xlink:href="#U" id="h"/><path d="M160-131c35 5 61 23 61 61C221 17 115-2 30 0v-248c76 3 177-17 177 60 0 33-19 50-47 57zm-97-11c50-1 110 9 110-42 0-47-63-36-110-37v79zm0 115c55-2 124 14 124-45 0-56-70-42-124-44v89" id="V"/><use transform="matrix(0.4444444444444444,0,0,0.4444444444444444,0,0)" xlink:href="#V" id="i"/><path fill="#c92d39" d="M160-131c35 5 61 23 61 61C221 17 115-2 30 0v-248c76 3 177-17 177 60 0 33-19 50-47 57zm-97-11c50-1 110 9 110-42 0-47-63-36-110-37v79zm0 115c55-2 124 14 124-45 0-56-70-42-124-44v89" id="W"/><use transform="matrix(0.4444444444444444,0,0,0.4444444444444444,0,0)" xlink:href="#W" id="j"/><path fill="#c92d39" d="M205 0l-28-72H64L36 0H1l101-248h38L239 0h-34zm-38-99l-47-123c-12 45-31 82-46 123h93" id="X"/><use transform="matrix(0.4444444444444444,0,0,0.4444444444444444,0,0)" xlink:href="#X" id="k"/><use transform="matrix(0.4444444444444444,0,0,0.4444444444444444,0,0)" xlink:href="#W" id="l"/><path d="M101-251c68 0 85 55 85 127S166 4 100 4C33 4 14-52 14-124c0-73 17-127 87-127zm-1 229c47 0 54-49 54-102s-4-102-53-102c-51 0-55 48-55 102 0 53 5 102 54 102" id="Y"/><use transform="matrix(0.1111111111111111,0,0,0.1111111111111111,0,0)" xlink:href="#Y" id="m"/><path d="M27 0v-27h64v-190l-56 39v-29l58-41h29v221h61V0H27" id="Z"/><use transform="matrix(0.1111111111111111,0,0,0.1111111111111111,0,0)" xlink:href="#Z" id="n"/><path d="M101-251c82-7 93 87 43 132L82-64C71-53 59-42 53-27h129V0H18c2-99 128-94 128-182 0-28-16-43-45-43s-46 15-49 41l-32-3c6-41 34-60 81-64" id="aa"/><use transform="matrix(0.1111111111111111,0,0,0.1111111111111111,0,0)" xlink:href="#aa" id="o"/><path d="M126-127c33 6 58 20 58 59 0 88-139 92-164 29-3-8-5-16-6-25l32-3c6 27 21 44 54 44 32 0 52-15 52-46 0-38-36-46-79-43v-28c39 1 72-4 72-42 0-27-17-43-46-43-28 0-47 15-49 41l-32-3c6-42 35-63 81-64 48-1 79 21 79 65 0 36-21 52-52 59" id="ab"/><use transform="matrix(0.1111111111111111,0,0,0.1111111111111111,0,0)" xlink:href="#ab" id="p"/><path d="M496 0v-299h235V0H496zm0-783v-299h235v299H496" id="ac"/><g id="q"><use transform="matrix(0.009765625,0,0,0.009765625,0,0)" xlink:href="#L"/><use transform="matrix(0.009765625,0,0,0.009765625,12.001953125,0)" xlink:href="#O"/><use transform="matrix(0.009765625,0,0,0.009765625,24.00390625,0)" xlink:href="#T"/><use transform="matrix(0.009765625,0,0,0.009765625,36.005859375,0)" xlink:href="#H"/><use transform="matrix(0.009765625,0,0,0.009765625,48.0078125,0)" xlink:href="#I"/><use transform="matrix(0.009765625,0,0,0.009765625,60.009765625,0)" xlink:href="#ac"/></g><path d="M684-845H543l-41-639h224" id="ad"/><path d="M1034 0L896-382H333L196 0H0l510-1349h217L1228 0h-194zM847-531c-77-225-157-447-231-674-69 231-154 451-232 674h463" id="ae"/><g id="r"><use transform="matrix(0.009765625,0,0,0.009765625,0,0)" xlink:href="#ad"/><use transform="matrix(0.009765625,0,0,0.009765625,12.001953125,0)" xlink:href="#ae"/><use transform="matrix(0.009765625,0,0,0.009765625,24.00390625,0)" xlink:href="#ad"/></g><path d="M839-1335c-182-6-269 67-259 253h491v142H580V0H400v-940H138v-142h262c-15-293 132-408 418-402 94 2 200 7 281 21v145c-75-10-177-14-260-17" id="af"/><g id="s"><use transform="matrix(0.009765625,0,0,0.009765625,0,0)" xlink:href="#O"/><use transform="matrix(0.009765625,0,0,0.009765625,12.001953125,0)" xlink:href="#af"/><use transform="matrix(0.009765625,0,0,0.009765625,24.00390625,0)" xlink:href="#af"/><use transform="matrix(0.009765625,0,0,0.009765625,36.005859375,0)" xlink:href="#R"/><use transform="matrix(0.009765625,0,0,0.009765625,48.0078125,0)" xlink:href="#H"/><use transform="matrix(0.009765625,0,0,0.009765625,60.009765625,0)" xlink:href="#L"/><use transform="matrix(0.009765625,0,0,0.009765625,72.01171875,0)" xlink:href="#ac"/></g><path d="M528 20c-247 0-343-132-343-381v-721h180v686c-4 177 45 284 224 277 194-8 279-136 279-336v-627h181c3 360-6 732 6 1082H885c-4-54-7-126-8-185h-3C809-64 714 20 528 20" id="ag"/><path d="M736-142h380V0H134v-142h422v-1200H267v-142h469v1342" id="ah"/><g id="t"><use transform="matrix(0.009765625,0,0,0.009765625,0,0)" xlink:href="#I"/><use transform="matrix(0.009765625,0,0,0.009765625,12.001953125,0)" xlink:href="#ag"/><use transform="matrix(0.009765625,0,0,0.009765625,24.00390625,0)" xlink:href="#ah"/><use transform="matrix(0.009765625,0,0,0.009765625,36.005859375,0)" xlink:href="#ah"/></g><path d="M802-711c201 25 350 118 350 331C1152-95 921 0 634 0H162v-1349c401 9 908-74 908 327 0 184-111 275-268 311zm-224-69c174-2 300-51 300-218 0-163-124-198-302-198H353v416h225zM353-153c281-2 612 44 606-244-5-271-329-233-606-234v478" id="ai"/><g id="u"><use transform="matrix(0.009765625,0,0,0.009765625,0,0)" xlink:href="#ad"/><use transform="matrix(0.009765625,0,0,0.009765625,12.001953125,0)" xlink:href="#ai"/><use transform="matrix(0.009765625,0,0,0.009765625,24.00390625,0)" xlink:href="#ad"/></g><path d="M677 91c1 136 41 195 171 195h213v139H796c-186-8-294-116-294-303v-351c-3-164-120-222-275-232v-137c155-10 275-69 275-231v-352c6-189 106-303 294-303h265v139H848c-126-3-171 67-171 195v346c-5 158-108 234-231 274 128 36 231 115 231 274V91" id="aj"/><use transform="matrix(0.009765625,0,0,0.009765625,0,0)" xlink:href="#aj" id="v"/><g id="w"><use transform="matrix(0.009765625,0,0,0.009765625,0,0)" xlink:href="#O"/><use transform="matrix(0.009765625,0,0,0.009765625,12.001953125,0)" xlink:href="#af"/><use transform="matrix(0.009765625,0,0,0.009765625,24.00390625,0)" xlink:href="#af"/><use transform="matrix(0.009765625,0,0,0.009765625,36.005859375,0)" xlink:href="#R"/><use transform="matrix(0.009765625,0,0,0.009765625,48.0078125,0)" xlink:href="#H"/><use transform="matrix(0.009765625,0,0,0.009765625,60.009765625,0)" xlink:href="#L"/><use transform="matrix(0.009765625,0,0,0.009765625,72.01171875,0)" xlink:href="#ac"/></g><path d="M1065-1013c47 164 49 500-1 665C999-130 875 20 611 20c-377 0-484-300-487-695-2-245 41-425 141-551 77-98 191-144 352-144 261 0 386 140 448 357zM741-155c199-92 203-504 159-785-26-168-96-284-283-284-281 0-308 256-311 549-2 181 18 324 80 428 46 77 115 118 227 120 47 0 90-10 128-28" id="ak"/><path d="M259 363l169-662h265L382 363H259" id="al"/><g id="x"><use transform="matrix(0.009765625,0,0,0.009765625,0,0)" xlink:href="#ak"/><use transform="matrix(0.009765625,0,0,0.009765625,12.001953125,0)" xlink:href="#al"/></g><path d="M1048-32c-2 300-135 456-433 456-222-1-358-88-400-267l184-25c22 99 100 157 222 156 184-2 248-125 248-315 0-64 3-133-2-194C807-100 706-13 524-12c-306 0-381-228-381-537 0-318 85-550 400-550 164 0 271 83 325 202h3c1-60 3-134 12-185h171c-13 339-4 702-6 1050zM585-145c210-8 284-178 284-406 0-192-52-331-177-392-33-16-69-22-104-22-223 2-259 184-259 414 0 229 31 415 256 406" id="am"/><path d="M648-963c-190 6-283 138-283 336V0H185v-1484h181c-2 197 6 404-9 587h3c62-120 159-205 339-205 242 0 351 135 350 381V0H868v-695c1-168-57-273-220-268" id="an"/><g id="y"><use transform="matrix(0.009765625,0,0,0.009765625,0,0)" xlink:href="#ah"/><use transform="matrix(0.009765625,0,0,0.009765625,12.001953125,0)" xlink:href="#H"/><use transform="matrix(0.009765625,0,0,0.009765625,24.00390625,0)" xlink:href="#I"/><use transform="matrix(0.009765625,0,0,0.009765625,36.005859375,0)" xlink:href="#am"/><use transform="matrix(0.009765625,0,0,0.009765625,48.0078125,0)" xlink:href="#L"/><use transform="matrix(0.009765625,0,0,0.009765625,60.009765625,0)" xlink:href="#an"/><use transform="matrix(0.009765625,0,0,0.009765625,72.01171875,0)" xlink:href="#ac"/></g><path d="M148-1120c216-7 379-89 463-229h166v1204h353V0H157v-145h439v-1021c-79 124-254 184-448 194v-148" id="ao"/><use transform="matrix(0.009765625,0,0,0.009765625,0,0)" xlink:href="#ao" id="z"/><path d="M726 122c-7 187-108 303-294 303H167V286h213c129-2 172-59 172-195v-347c5-160 106-236 230-276-125-36-230-116-230-272v-346c2-128-45-195-172-195H167v-139h265c187 7 294 114 294 303v352c4 162 120 221 275 231v137c-155 10-275 68-275 232v351" id="ap"/><use transform="matrix(0.009765625,0,0,0.009765625,0,0)" xlink:href="#ap" id="A"/><g id="B"><use transform="matrix(0.009765625,0,0,0.009765625,0,0)" xlink:href="#ao"/><use transform="matrix(0.009765625,0,0,0.009765625,12.001953125,0)" xlink:href="#al"/></g><path d="M1060-1016c0 191-128 285-295 323v4c154 18 262 91 313 209 14 35 21 72 21 110 0 277-194 390-478 390-292 0-457-129-493-382l186-17c24 161 121 250 307 250 172 1 298-80 291-247-8-208-220-239-446-233v-156c217 9 409-34 409-232 0-152-102-225-264-225-159 0-264 88-278 233l-181-14c33-239 196-367 461-367 264 0 447 102 447 354" id="aq"/><use transform="matrix(0.009765625,0,0,0.009765625,0,0)" xlink:href="#aq" id="C"/><path d="M237 0v-1349h191v1193h672V0H237" id="ar"/><path d="M1155 0H73v-143l818-1050H146v-156h962v139L290-156h865V0" id="as"/><path d="M1069-1210C890-948 720-664 634-316c-25 105-38 210-38 316H408c9-385 153-667 302-925 57-98 120-190 185-279H158v-145h911v139" id="at"/><g id="D"><use transform="matrix(0.015190972222222224,0,0,0.015190972222222224,0,0)" xlink:href="#ar"/><use transform="matrix(0.015190972222222224,0,0,0.015190972222222224,18.669704861111114,0)" xlink:href="#as"/><use transform="matrix(0.015190972222222224,0,0,0.015190972222222224,37.33940972222223,0)" xlink:href="#at"/><use transform="matrix(0.015190972222222224,0,0,0.015190972222222224,56.00911458333334,0)" xlink:href="#at"/></g><path d="M1018 0H814c-67-224-138-444-200-673C552-442 476-224 407 0H204L21-1082h178c43 310 105 601 126 933 54-225 128-425 193-638h193c63 212 134 415 185 638 22-336 90-622 136-933h176" id="au"/><g id="E"><use transform="matrix(0.015190972222222224,0,0,0.015190972222222224,0,0)" xlink:href="#au"/><use transform="matrix(0.015190972222222224,0,0,0.015190972222222224,18.669704861111114,0)" xlink:href="#O"/><use transform="matrix(0.015190972222222224,0,0,0.015190972222222224,37.33940972222223,0)" xlink:href="#J"/><use transform="matrix(0.015190972222222224,0,0,0.015190972222222224,56.00911458333334,0)" xlink:href="#T"/><use transform="matrix(0.015190972222222224,0,0,0.015190972222222224,74.67881944444446,0)" xlink:href="#H"/><use transform="matrix(0.015190972222222224,0,0,0.015190972222222224,93.34852430555557,0)" xlink:href="#M"/></g><path d="M932 0L611-444 288 0H94l415-556-397-526h199l300 421 298-421h201L713-558 1133 0H932" id="av"/><g id="F"><use transform="matrix(0.015190972222222224,0,0,0.015190972222222224,0,0)" xlink:href="#H"/><use transform="matrix(0.015190972222222224,0,0,0.015190972222222224,18.669704861111114,0)" xlink:href="#av"/><use transform="matrix(0.015190972222222224,0,0,0.015190972222222224,37.33940972222223,0)" xlink:href="#K"/><use transform="matrix(0.015190972222222224,0,0,0.015190972222222224,56.00911458333334,0)" xlink:href="#P"/><use transform="matrix(0.015190972222222224,0,0,0.015190972222222224,74.67881944444446,0)" xlink:href="#Q"/><use transform="matrix(0.015190972222222224,0,0,0.015190972222222224,93.34852430555557,0)" xlink:href="#ah"/><use transform="matrix(0.015190972222222224,0,0,0.015190972222222224,112.01822916666669,0)" xlink:href="#H"/></g></defs></g></svg>